<?xml version="1.0" encoding="UTF-8"?>
<svg version="1.1" xmlns="http://www.w3.org/2000/svg" width="134" height="134">
<path d="M0 0 C3.49761035 2.84676909 6.7847255 5.83894598 10 9 C10.65097656 9.63808594 11.30195312 10.27617187 11.97265625 10.93359375 C23.2835664 22.89084163 27.67905189 39.7185387 27.40014648 55.84765625 C26.64592637 74.10020313 18.73757477 89.53964316 5.73046875 102.2109375 C-6.35395487 112.67208033 -23.44252878 119.06853748 -39.55859375 118.2734375 C-58.38034842 116.16540098 -74.70050667 109.76624434 -87.49609375 95.1484375 C-99.11550178 80.38091399 -103.78603709 63.63123123 -102 45 C-99.85891426 29.58775115 -93.07161773 16.9361259 -82 6 C-81.38640625 5.36449219 -80.7728125 4.72898437 -80.140625 4.07421875 C-59.46638164 -15.84903714 -22.68548002 -17.02373882 0 0 Z " fill="#011017" transform="translate(105,14)"/>
<path d="M0 0 C0.38218767 1.65614657 0.71395102 3.32457024 1 5 C-0.86164671 6.86164671 -4.06479158 6.2637553 -6.5625 6.375 C-15.83180269 7.00486134 -22.57445967 9.00366294 -29 16 C-34.26145029 23.2225363 -34.94232493 31.30244925 -34 40 C-31.50789359 47.99038601 -26.96875264 52.98863476 -19.9375 57.25 C-14.08205843 60.26136995 -8.49829256 61.14418861 -2 60 C7.24306974 56.7626377 12.83445769 52.2395183 17.8125 44 C20.10427134 38.16272358 19.76827028 31.20875849 20 25 C21.66611905 24.957279 23.33382885 24.95936168 25 25 C26.87196817 26.87196817 26.303681 29.80261997 26.375 32.3125 C26.31343835 40.93992585 23.92686598 48.41238582 18.75 55.375 C11.30076789 62.48563065 2.92600471 66.93446459 -7.5 67.375 C-17.18247132 66.96588149 -26.00455136 63.17346018 -32.75390625 56.18359375 C-39.32373925 48.03304905 -41.74371925 39.82413899 -41.37109375 29.390625 C-40.28770305 19.4918552 -35.42094438 12.49472125 -28 6 C-19.01224675 -0.54840657 -10.63342824 -0.72868671 0 0 Z " fill="#F2F2F3" transform="translate(75,34)"/>
<path d="M0 0 C1.50433594 0.01353516 1.50433594 0.01353516 3.0390625 0.02734375 C3.80992188 0.03894531 4.58078125 0.05054688 5.375 0.0625 C5.75718767 1.71864657 6.08895102 3.38707024 6.375 5.0625 C4.7722044 6.6652956 2.90123175 6.25918444 0.6875 6.375 C-5.55083196 6.96234652 -8.84516859 9.04848024 -13 13.75 C-15.09551059 18.02161773 -15.35278192 21.38629203 -14.625 26.0625 C-13.24285878 29.41411246 -13.24285878 29.41411246 -11.625 32.0625 C-11.625 32.7225 -11.625 33.3825 -11.625 34.0625 C-10.30161368 34.74870031 -8.96550052 35.41036461 -7.625 36.0625 C-6.861875 36.43375 -6.09875 36.805 -5.3125 37.1875 C-0.72423741 38.68135294 2.96845125 38.56885755 7.5 36.9375 C11.43792318 34.36928923 14.24612583 31.32024835 16.375 27.0625 C16.60122081 25.35886178 16.78388473 23.64921299 16.9375 21.9375 C17.02128906 21.02742188 17.10507813 20.11734375 17.19140625 19.1796875 C17.28228516 18.13167969 17.28228516 18.13167969 17.375 17.0625 C19.04111905 17.019779 20.70882885 17.02186168 22.375 17.0625 C23.375 18.0625 23.375 18.0625 23.75 22 C23.64472937 28.61099536 21.1529476 34.24387116 16.5078125 38.95703125 C10.97407975 43.38186425 5.62761072 45.33748498 -1.5 45.0625 C-8.03372777 44.19730317 -13.17102506 41.16657331 -17.26171875 35.9921875 C-21.25258413 29.79433926 -22.508407 24.41036763 -21.625 17.0625 C-19.4767422 9.90513377 -15.98353367 5.90041998 -9.61328125 2.12109375 C-6.08661733 0.24343968 -4.035592 -0.04692549 0 0 Z " fill="#F2F3F3" transform="translate(66.625,44.9375)"/>
<path d="M0 0 C1.0209375 0.4640625 1.0209375 0.4640625 2.0625 0.9375 C2.0625 3.2475 2.0625 5.5575 2.0625 7.9375 C4.3725 7.9375 6.6825 7.9375 9.0625 7.9375 C9.9375 10.0625 9.9375 10.0625 10.0625 12.9375 C8.05719497 15.75576653 6.94964661 17.2268088 4.0625 18.9375 C1.890625 19.08203125 1.890625 19.08203125 -0.5 19 C-5.56411871 19.11509361 -7.66758375 21.23687345 -11.03295898 24.69311523 C-12.16854108 25.92945138 -13.28580435 27.18289239 -14.38305664 28.45336914 C-15.84143918 30.09633988 -17.18934165 31.60562512 -18.9375 32.9375 C-21.82421875 32.8359375 -21.82421875 32.8359375 -23.9375 31.9375 C-23.10220848 27.33049876 -20.28670442 25.26365724 -16.9375 22.25 C-12.68435893 18.40025497 -12.68435893 18.40025497 -10.16796875 13.3984375 C-10.14018905 11.92863869 -10.14329643 10.45779014 -10.18359375 8.98828125 C-9.75197158 5.39142985 -7.39536969 3.44739343 -4.79296875 1.11328125 C-2.9375 -0.0625 -2.9375 -0.0625 0 0 Z " fill="#91BB1D" transform="translate(90.9375,34.0625)"/>
<path d="M0 0 C1.65 0.33 3.3 0.66 5 1 C4.48579339 3.57103303 3.96897576 6.13340425 3.375 8.6875 C2.76572985 11.01864219 2.76572985 11.01864219 4 13 C8.16138263 13.08159574 11.9472484 12.98248524 16 12 C16.33 13.32 16.66 14.64 17 16 C14.02911661 19.06671834 11.76916301 20.34221866 7.5625 20.5625 C2.55604929 20.35354964 0.39911328 18.56906895 -3 15 C-4.5547669 11.89046621 -4.28644437 9.43733239 -4 6 C-2 2.5625 -2 2.5625 0 0 Z " fill="#EDEEEF" transform="translate(60,58)"/>
</svg>
