<?xml version="1.0" encoding="UTF-8"?>
<svg id="Outline" xmlns="http://www.w3.org/2000/svg" version="1.1" viewBox="0 0 512 512">
  <defs>
    <style>
      .cls-1 {
        fill: #44a7de;
        stroke-width: 0px;
      }
    </style>
  </defs>
  <path class="cls-1" d="M0,156.3C0,150.6,2.2,145.2,6.2,141.2c8.3-8.4,21.8-8.4,30.2,0h0c0,0,174.3,174.4,174.3,174.4,25,25,65.5,25,90.5,0l174.2-174.3c8.4-8.4,21.9-8.4,30.3,0,8.4,8.4,8.4,21.9,0,30.3l-174.3,174.3c-41.6,41.7-109.1,41.8-150.8.2l-.2-.2L6.2,171.5C2.2,167.5,0,162,0,156.4H0Z"/>
</svg>