<?xml version="1.0" encoding="utf-8"?>
<!-- Generator: Adobe Illustrator 28.1.0, SVG Export Plug-In . SVG Version: 6.00 Build 0)  -->
<svg version="1.1" id="Outline" xmlns="http://www.w3.org/2000/svg" xmlns:xlink="http://www.w3.org/1999/xlink" x="0px" y="0px"
	 viewBox="0 0 512 512" style="enable-background:new 0 0 512 512;" xml:space="preserve">
<style type="text/css">
	.st0{fill:#FFFFFF;}
	.st1{fill:#96C11E;}
</style>
<path class="st0" d="M149.3,10.5h-64c-41.3,0-74.8,33.6-74.8,74.8v64c0,41.3,33.6,74.8,74.8,74.8h64c41.3,0,74.8-33.6,74.8-74.8v-64
	C224.2,44.1,190.6,10.5,149.3,10.5z M202.5,149.3c0,29.3-23.9,53.2-53.2,53.2h-64c-29.3,0-53.2-23.9-53.2-53.2v-64
	C32.2,56,56,32.2,85.3,32.2h64c29.3,0,53.2,23.9,53.2,53.2V149.3z"/>
<path class="st1" d="M426.7,10.5h-64c-41.3,0-74.8,33.6-74.8,74.8v64c0,41.3,33.6,74.8,74.8,74.8h64c41.3,0,74.8-33.6,74.8-74.8v-64
	C501.5,44.1,467.9,10.5,426.7,10.5z M479.8,149.3c0,29.3-23.9,53.2-53.2,53.2h-64c-29.3,0-53.2-23.9-53.2-53.2v-64
	c0-29.3,23.9-53.2,53.2-53.2h64c29.3,0,53.2,23.9,53.2,53.2V149.3z"/>
<path class="st0" d="M149.3,287.8h-64c-41.3,0-74.8,33.6-74.8,74.8v64c0,41.3,33.6,74.8,74.8,74.8h64c41.3,0,74.8-33.6,74.8-74.8
	v-64C224.2,321.4,190.6,287.8,149.3,287.8z M202.5,426.7c0,29.3-23.9,53.2-53.2,53.2h-64c-29.3,0-53.2-23.9-53.2-53.2v-64
	c0-29.3,23.9-53.2,53.2-53.2h64c29.3,0,53.2,23.9,53.2,53.2V426.7z"/>
<path class="st0" d="M426.7,287.8h-64c-41.3,0-74.8,33.6-74.8,74.8v64c0,41.3,33.6,74.8,74.8,74.8h64c41.3,0,74.8-33.6,74.8-74.8
	v-64C501.5,321.4,467.9,287.8,426.7,287.8z M479.8,426.7c0,29.3-23.9,53.2-53.2,53.2h-64c-29.3,0-53.2-23.9-53.2-53.2v-64
	c0-29.3,23.9-53.2,53.2-53.2h64c29.3,0,53.2,23.9,53.2,53.2V426.7z"/>
</svg>
