<?xml version="1.0" encoding="utf-8"?>
<!-- Generator: Adobe Illustrator 28.1.0, SVG Export Plug-In . SVG Version: 6.00 Build 0)  -->
<svg version="1.1" id="Layer_1" xmlns="http://www.w3.org/2000/svg" xmlns:xlink="http://www.w3.org/1999/xlink" x="0px" y="0px"
	 viewBox="0 0 512 512" style="enable-background:new 0 0 512 512;" xml:space="preserve">
<style type="text/css">
	.st0{fill:#FFFFFF;}
	.st1{fill:#96C11E;}
</style>
<path class="st0" d="M501.5,384V128c-0.1-53-43.2-96.1-96.2-96.2H106.7C53.7,31.9,10.6,75,10.5,128v256c0.1,53,43.2,96.1,96.2,96.2
	h298.7C458.3,480.1,501.4,437,501.5,384z M32.2,128c0-41.1,33.4-74.5,74.5-74.5h298.7c41.1,0,74.5,33.4,74.5,74.5v31.8H32.2V128z
	 M405.3,458.5H106.7c-41.1,0-74.5-33.4-74.5-74.5V181.5h447.7V384C479.8,425.1,446.4,458.5,405.3,458.5z"/>
<path class="st1" d="M128,288.2h256c6,0,10.8-4.9,10.8-10.8s-4.9-10.8-10.8-10.8H128c-6,0-10.8,4.9-10.8,10.8S122,288.2,128,288.2z"
	/>
<path class="st1" d="M128,373.5h170.7c6,0,10.8-4.9,10.8-10.8s-4.9-10.8-10.8-10.8H128c-6,0-10.8,4.9-10.8,10.8S122,373.5,128,373.5
	z"/>
</svg>
