<?xml version="1.0" encoding="UTF-8"?>
<svg version="1.1" xmlns="http://www.w3.org/2000/svg" width="134" height="134">
<path d="M0 0 C12.47735539 10.84321334 21.71941492 25.5575022 23.22338867 42.29174805 C24.27054158 63.32692553 20.27754446 78.91699171 6.86328125 95.265625 C-3.96355876 106.90845846 -20.03103518 114.86320412 -36.01171875 115.67578125 C-36.76324219 115.71445313 -37.51476562 115.753125 -38.2890625 115.79296875 C-56.70952369 116.31677333 -73.80017154 109.65323876 -87.19921875 97.05078125 C-99.73024879 83.92208682 -105.87859852 67.94922824 -106.046875 49.90625 C-105.23623793 30.70799152 -97.67035295 14.8966223 -84.01171875 1.55078125 C-77.7979304 -3.74921469 -70.45889421 -7.10982279 -63.01171875 -10.32421875 C-62.1196875 -10.70964844 -61.22765625 -11.09507813 -60.30859375 -11.4921875 C-40.30596159 -18.36405951 -16.28695202 -12.56904857 0 0 Z " fill="#000F16" transform="translate(109.01171875,16.32421875)"/>
<path d="M0 0 C3.81247372 0.29326721 6.3293354 0.50130068 9.4375 2.8125 C11 5 11 5 11 9 C11.60277267 8.98889694 12.20554535 8.97779388 12.82658386 8.96635437 C19.10437186 8.85567444 25.38188243 8.78029696 31.66040039 8.7253418 C34.00296284 8.70020875 36.34544695 8.66609692 38.68774414 8.62280273 C42.05634899 8.56210072 45.42391649 8.53377749 48.79296875 8.51171875 C50.36198189 8.47300911 50.36198189 8.47300911 51.96269226 8.43351746 C59.25068259 8.43071077 59.25068259 8.43071077 63.16333008 11.40332031 C66.01687462 15.43765499 65.65680462 18.2381665 65 23 C62.71945701 35.8199095 62.71945701 35.8199095 58 40 C53.00947862 43.067101 49.20715644 43.40898369 43.5390625 43.29296875 C42.74849457 43.28872391 41.95792664 43.28447906 41.1434021 43.28010559 C38.6369106 43.26341301 36.13124539 43.22577983 33.625 43.1875 C31.91798042 43.17244092 30.21094815 43.15875466 28.50390625 43.14648438 C24.33562275 43.11354056 20.16795111 43.06182493 16 43 C18.40701819 46.1258562 19.60850492 46.94022241 23.57519531 47.54589844 C24.99240141 47.58697019 26.41032592 47.60696586 27.828125 47.609375 C28.57713074 47.62591125 29.32613647 47.64244751 30.09783936 47.65948486 C32.48197654 47.7079351 34.86547611 47.72932772 37.25 47.75 C38.86982369 47.7781624 40.48961772 47.80809022 42.109375 47.83984375 C46.07286414 47.91369244 50.03599998 47.96328457 54 48 C54.38218767 49.65614657 54.71395102 51.32457024 55 53 C53.02060234 54.97939766 49.16585244 54.21129916 46.45703125 54.23828125 C45.69581467 54.246353 44.93459808 54.25442474 44.15031433 54.26274109 C42.53374521 54.27660085 40.91714658 54.28731451 39.30053711 54.29516602 C36.83975639 54.31231011 34.38034338 54.35616777 31.91992188 54.40039062 C30.34896821 54.41052348 28.77800312 54.41903773 27.20703125 54.42578125 C26.47555374 54.44328934 25.74407623 54.46079742 24.99043274 54.47883606 C18.51833775 54.45167205 15.16557117 52.16281043 10.7019043 47.70483398 C8.56964607 44.31603914 8.20613837 41.69525444 7.76953125 37.72265625 C7.68877853 37.03368759 7.60802582 36.34471893 7.52482605 35.63487244 C7.27157504 33.44553007 7.04147184 31.25450125 6.8125 29.0625 C6.56750346 26.87491018 6.31784333 24.6878845 6.06803894 22.50083923 C5.84380697 20.51447194 5.63022527 18.5269109 5.41723633 16.53930664 C5.27954834 15.37133545 5.14186035 14.20336426 5 13 C4.87069092 11.8855249 4.74138184 10.7710498 4.6081543 9.62280273 C4.30711792 8.32451538 4.30711792 8.32451538 4 7 C1.53744315 5.54708727 1.53744315 5.54708727 -1 5 C-0.67 3.35 -0.34 1.7 0 0 Z " fill="#F2F3F3" transform="translate(36,33)"/>
<path d="M0 0 C15.18 0 30.36 0 46 0 C47.40457682 5.61830729 46.43645197 10.43659871 45 16 C43.13882992 18.96623981 42.0855694 20.4572153 39 22 C36.22839374 22.08683445 33.48225235 22.1155579 30.7109375 22.09765625 C29.48330185 22.09553383 29.48330185 22.09553383 28.23086548 22.09336853 C25.61220675 22.0877629 22.99363296 22.07520948 20.375 22.0625 C18.60156373 22.05748572 16.82812613 22.05292269 15.0546875 22.04882812 C10.70309218 22.03779164 6.3515605 22.02052325 2 22 C1.66076424 19.64655194 1.32849466 17.2924516 1 14.9375 C0.85691406 13.95233398 0.85691406 13.95233398 0.7109375 12.94726562 C0.09989388 8.51719937 0 4.53522068 0 0 Z " fill="#031219" transform="translate(48,48)"/>
<path d="M0 0 C3.5625 0.1875 3.5625 0.1875 5.5625 2.1875 C5.875 5.6875 5.875 5.6875 5.5625 9.1875 C2.32996204 11.34252531 1.31099077 11.65606135 -2.4375 11.1875 C-4.3125 10.125 -4.3125 10.125 -5.4375 8.1875 C-4.89124449 0.26679515 -4.89124449 0.26679515 0 0 Z " fill="#90BA1D" transform="translate(54.4375,89.8125)"/>
<path d="M0 0 C2 2 2 2 2.3125 5.5 C2.1578125 7.2325 2.1578125 7.2325 2 9 C-1.22143276 11.14762184 -2.2595467 11.561068 -6 11 C-7.875 9.375 -7.875 9.375 -9 7 C-8.8125 3.8125 -8.8125 3.8125 -8 1 C-5.23749964 -0.38125018 -3.05268901 -0.19079306 0 0 Z " fill="#91BC1D" transform="translate(86,90)"/>
</svg>
