<?xml version="1.0" encoding="UTF-8"?>
<svg id="Layer_1" xmlns="http://www.w3.org/2000/svg" version="1.1" viewBox="0 0 24 24">
  <!-- Generator: Adobe Illustrator 29.2.1, SVG Export Plug-In . SVG Version: 2.1.0 Build 116)  -->
  <defs>
    <style>
      .st0 {
        fill: #fff;
      }

      .st1 {
        fill: #96c11e;
      }
    </style>
  </defs>
  <path class="st0" d="M23.7,5.7v9.8c0,1.9-.8,3.8-2.1,5.1l-2.9,2.9c0,0-.2.1-.3.1s-.2,0-.3-.1c-.2-.2-.2-.5,0-.7l2.9-2.9c1.2-1.2,1.8-2.8,1.8-4.5V5.7c0-.8-.7-1.5-1.5-1.5s-1.5.7-1.5,1.5c0,0,0,7.8,0,7.8,0,.5-.2,1.1-.6,1.5l-2.6,2.7c0,0-.2.1-.3.1s-.2,0-.3-.1c-.2-.2-.2-.5,0-.7l2.5-2.6c.2-.3.3-.6.3-.9h0c0-.4-.1-.7-.4-1-.5-.6-1.5-.6-2.1-.1l-2.7,2.4c-.5.5-.9,1-1.2,1.6.3.7.4,1.5.4,2.3v4.4c0,.3-.2.5-.5.5s-.5-.2-.5-.5v-4.4c0-1.5-.6-2.9-1.7-3.9l-2.7-2.4c-.6-.5-1.5-.5-2,.1-.5.5-.5,1.4,0,1.9l2.5,2.6c.2.2.2.5,0,.7-.2.2-.5.2-.7,0l-2.5-2.6c-.4-.4-.6-1-.6-1.5,0,0,0-7.9,0-7.9,0-.8-.7-1.5-1.5-1.5s-1.5.7-1.5,1.5v9.8c0,1.7.7,3.3,1.8,4.5l2.9,2.9c.2.2.2.5,0,.7,0,0-.2.1-.3.1s-.2,0-.3-.1l-2.9-2.9c-1.4-1.4-2.1-3.2-2.1-5.1V5.7c0-1.3,1.1-2.4,2.4-2.4s2.4,1.1,2.4,2.4v5.8c.9-.7,2.2-.6,3.1.1l2.7,2.4c.4.4.8.8,1.1,1.3.3-.5.7-.9,1.1-1.3l2.7-2.4c.9-.8,2.2-.8,3.1-.1v-5.8c0-1.3,1.1-2.4,2.4-2.4s2.4,1.1,2.4,2.4h0Z"/>
  <path class="st1" d="M14.2.3c-.9,0-1.7.4-2.2,1.1-.5-.7-1.3-1.1-2.2-1.1-1.5,0-2.7,1.3-2.7,2.8s2.5,4.6,3.8,5.6c.3.3.7.4,1.1.4s.8-.1,1.1-.4c1.3-1,3.8-3.6,3.8-5.6S15.7.3,14.2.3ZM12.5,8c-.3.2-.7.2-.9,0-1.4-1.1-3.4-3.4-3.4-4.9s.8-1.9,1.7-1.9,1.7.7,1.7,1.7.2.5.5.5.5-.2.5-.5c0-1,.7-1.7,1.7-1.7s1.7.8,1.7,1.9c0,1.5-2,3.7-3.4,4.9Z"/>
</svg>