<?xml version="1.0" encoding="UTF-8"?>
<svg version="1.1" xmlns="http://www.w3.org/2000/svg" width="300" height="400">
<path d="M0 0 C2.31 0.33 4.62 0.66 7 1 C7.59732819 3.76264289 8 6.16032769 8 9 C8.66 9.66 9.32 10.32 10 11 C10.125 14.125 10.125 14.125 10 17 C12.37429296 17.25069913 12.37429296 17.25069913 15 17 C15.495 16.505 15.99 16.01 16.5 15.5 C18 14 18 14 20.6875 13.8125 C21.450625 13.874375 22.21375 13.93625 23 14 C23.3403125 13.0409375 23.3403125 13.0409375 23.6875 12.0625 C25 10 25 10 27.4375 9.0625 C30 9 30 9 31.875 10.125 C33 12 33 12 32.9375 14.5 C32 17 32 17 29.9375 18.5 C29.298125 18.995 28.65875 19.49 28 20 C27.957279 21.66611905 27.95936168 23.33382885 28 25 C26.5 27.1875 26.5 27.1875 25 29 C25 29.66 25 30.32 25 31 C26.093125 31.12375 27.18625 31.2475 28.3125 31.375 C32 32 32 32 35 34 C35.66 33.835 36.32 33.67 37 33.5 C37.66 33.335 38.32 33.17 39 33 C40.485 33.99 40.485 33.99 42 35 C42.375 38 42.375 38 42 41 C41.01 41.66 40.02 42.32 39 43 C38.0409375 42.7215625 38.0409375 42.7215625 37.0625 42.4375 C36.381875 42.293125 35.70125 42.14875 35 42 C33.64082143 42.96457834 32.30915279 43.96854629 31 45 C28.25 45.6875 28.25 45.6875 26 46 C25.7226499 49.18490007 25.7226499 49.18490007 28 52 C27.9071875 53.2375 27.9071875 53.2375 27.8125 54.5 C27.874375 55.325 27.93625 56.15 28 57 C28.825 57.495 29.65 57.99 30.5 58.5 C31.325 58.995 32.15 59.49 33 60 C33.4375 62.5625 33.4375 62.5625 33 65 C31 67 31 67 28.5625 67.4375 C26 67 26 67 24.1875 64.5 C23.795625 63.675 23.40375 62.85 23 62 C22.01 62.33 21.02 62.66 20 63 C18.31503702 62.03114628 16.64821244 61.03013277 15 60 C14.01 60 13.02 60 12 60 C11.34 60 10.68 60 10 60 C9.814375 61.670625 9.814375 61.670625 9.625 63.375 C9 67 9 67 7 69 C7.2475 70.2375 7.2475 70.2375 7.5 71.5 C7.7475 72.7375 7.7475 72.7375 8 74 C6 76 6 76 3 76.25 C0 76 0 76 -2 74 C-1.7215625 72.5459375 -1.7215625 72.5459375 -1.4375 71.0625 C-1.293125 70.051875 -1.14875 69.04125 -1 68 C-2.41666667 66.41666667 -2.41666667 66.41666667 -4 65 C-4.1875 62.3125 -4.1875 62.3125 -4 60 C-5.73575649 59.12563582 -5.73575649 59.12563582 -8 59 C-8.825 59.66 -9.65 60.32 -10.5 61 C-13 63 -13 63 -15.3125 62.75 C-15.869375 62.5025 -16.42625 62.255 -17 62 C-17.391875 62.825 -17.78375 63.65 -18.1875 64.5 C-20 67 -20 67 -22.5625 67.4375 C-25 67 -25 67 -27 65 C-27.4375 62.5625 -27.4375 62.5625 -27 60 C-26.175 59.525625 -25.35 59.05125 -24.5 58.5625 C-23.675 58.046875 -22.85 57.53125 -22 57 C-21.83333333 54 -21.83333333 54 -22 51 C-20.5 49.125 -20.5 49.125 -19 48 C-19.33 47.34 -19.66 46.68 -20 46 C-20.99 45.690625 -21.98 45.38125 -23 45.0625 C-23.99 44.711875 -24.98 44.36125 -26 44 C-26.495 42.515 -26.495 42.515 -27 41 C-27.99 41.66 -28.98 42.32 -30 43 C-34.54054054 42.45945946 -34.54054054 42.45945946 -36 41 C-36.25 38.0625 -36.25 38.0625 -36 35 C-33 33 -33 33 -30.875 33.3125 C-29 34 -29 34 -28 35 C-27.443125 34.34 -26.88625 33.68 -26.3125 33 C-24 31 -24 31 -21.25 30.75 C-20.5075 30.8325 -19.765 30.915 -19 31 C-19.57344937 28.13275314 -19.8614515 27.1385485 -22 25 C-21.9071875 23.824375 -21.9071875 23.824375 -21.8125 22.625 C-21.71845226 19.73169131 -21.71845226 19.73169131 -24.5 17.6875 C-25.325 17.130625 -26.15 16.57375 -27 16 C-26.25 11.25 -26.25 11.25 -24 9 C-21.375 9.375 -21.375 9.375 -19 10 C-18.67 11.65 -18.34 13.3 -18 15 C-17.071875 14.773125 -16.14375 14.54625 -15.1875 14.3125 C-14.135625 14.209375 -13.08375 14.10625 -12 14 C-10.4375 15.4375 -10.4375 15.4375 -9 17 C-6.37429296 17.25069913 -6.37429296 17.25069913 -4 17 C-4.0928125 15.6078125 -4.0928125 15.6078125 -4.1875 14.1875 C-3.9698755 10.48788354 -3.43530293 10.43530293 -1 8 C-1.29299023 6.32577014 -1.62690101 4.65821773 -2 3 C-1.34 2.01 -0.68 1.02 0 0 Z M20 22 C21 24 21 24 21 24 Z M-8 30 C-7 32 -7 32 -7 32 Z M13 30 C14 32 14 32 14 32 Z M2 41 C1.67 41.99 1.34 42.98 1 44 C2.32 43.67 3.64 43.34 5 43 C4.67 42.34 4.34 41.68 4 41 C3.34 41 2.68 41 2 41 Z M1 60 C5 61 5 61 5 61 Z " fill="#114657" transform="translate(149,76)"/>
<path d="M0 0 C2.31 0.33 4.62 0.66 7 1 C7.59732819 3.76264289 8 6.16032769 8 9 C8.66 9.66 9.32 10.32 10 11 C10.125 14.125 10.125 14.125 10 17 C12.37429296 17.25069913 12.37429296 17.25069913 15 17 C15.495 16.505 15.99 16.01 16.5 15.5 C18 14 18 14 20.6875 13.8125 C21.450625 13.874375 22.21375 13.93625 23 14 C23.3403125 13.0409375 23.3403125 13.0409375 23.6875 12.0625 C25 10 25 10 27.4375 9.0625 C30 9 30 9 31.875 10.125 C33 12 33 12 32.9375 14.5 C32 17 32 17 29.9375 18.5 C29.298125 18.995 28.65875 19.49 28 20 C28 20.804375 28 21.60875 28 22.4375 C28 25 28 25 26.125 27.3125 C24 29 24 29 22 29 C22.495 27.515 22.495 27.515 23 26 C22.01 25.67 21.02 25.34 20 25 C16.76985216 27.15343189 15.24313463 28.27059611 14 32 C13.27683594 31.49533203 13.27683594 31.49533203 12.5390625 30.98046875 C8.77550526 29.52715665 5.34699238 30.00260462 1.375 30.3125 C0.59898437 30.36083984 -0.17703125 30.40917969 -0.9765625 30.45898438 C-5.12194586 30.67349162 -5.12194586 30.67349162 -9 32 C-9.0825 31.21625 -9.165 30.4325 -9.25 29.625 C-9.70849401 26.8553382 -9.70849401 26.8553382 -12 25.875 C-12.99 25.441875 -12.99 25.441875 -14 25 C-14.33 24.01 -14.66 23.02 -15 22 C-13.68 21.01 -12.36 20.02 -11 19 C-11.33 20.65 -11.66 22.3 -12 24 C-7.22426677 26.61895048 -3.15565119 25.83119431 2 25 C1.505 22.525 1.505 22.525 1 20 C-1.16874252 20.50603992 -2.99967627 20.99983813 -5 22 C-6.07817935 18.77269804 -5.94858069 17.01873669 -4.6875 13.875 C-4.42324219 13.19179687 -4.15898437 12.50859375 -3.88671875 11.8046875 C-3 10 -3 10 -1 8 C-1.165 7.195625 -1.33 6.39125 -1.5 5.5625 C-2 3 -2 3 0 0 Z " fill="#0C4253" transform="translate(149,76)"/>
<path d="M0 0 C0.99 0.99 1.98 1.98 3 3 C2.67 3.66 2.34 4.32 2 5 C2.99 5 3.98 5 5 5 C5 5.66 5 6.32 5 7 C6.093125 7.12375 7.18625 7.2475 8.3125 7.375 C12 8 12 8 15 10 C15.66 9.835 16.32 9.67 17 9.5 C17.66 9.335 18.32 9.17 19 9 C19.99 9.66 20.98 10.32 22 11 C22.375 14 22.375 14 22 17 C21.01 17.66 20.02 18.32 19 19 C18.360625 18.814375 17.72125 18.62875 17.0625 18.4375 C16.0415625 18.2209375 16.0415625 18.2209375 15 18 C13.64082143 18.96457834 12.30915279 19.96854629 11 21 C8.25 21.6875 8.25 21.6875 6 22 C5.7226499 25.18490007 5.7226499 25.18490007 8 28 C7.938125 28.825 7.87625 29.65 7.8125 30.5 C7.874375 31.325 7.93625 32.15 8 33 C8.825 33.495 9.65 33.99 10.5 34.5 C11.325 34.995 12.15 35.49 13 36 C13.4375 38.5625 13.4375 38.5625 13 41 C11 43 11 43 8.5625 43.4375 C6 43 6 43 4.1875 40.5 C3.795625 39.675 3.40375 38.85 3 38 C1.515 38.495 1.515 38.495 0 39 C-2.6875 37.5625 -2.6875 37.5625 -5 36 C-3.625 34 -3.625 34 -2 32 C-1.34 32 -0.68 32 0 32 C0 30.68 0 29.36 0 28 C-1.98 27.01 -3.96 26.02 -6 25 C-5.34 22.36 -4.68 19.72 -4 17 C-3.34 17 -2.68 17 -2 17 C-2 16.34 -2 15.68 -2 15 C-2.66 15 -3.32 15 -4 15 C-4.66 11.37 -5.32 7.74 -6 4 C-4.02 2.68 -2.04 1.36 0 0 Z " fill="#0A4153" transform="translate(169,100)"/>
<path d="M0 0 C1.93166016 0.01740234 1.93166016 0.01740234 3.90234375 0.03515625 C5.19269531 0.04417969 6.48304688 0.05320312 7.8125 0.0625 C8.81152344 0.07410156 9.81054688 0.08570312 10.83984375 0.09765625 C10.83984375 0.75765625 10.83984375 1.41765625 10.83984375 2.09765625 C6.21984375 2.09765625 1.59984375 2.09765625 -3.16015625 2.09765625 C-3.16015625 4.40765625 -3.16015625 6.71765625 -3.16015625 9.09765625 C1.78984375 8.76765625 6.73984375 8.43765625 11.83984375 8.09765625 C12.49984375 5.78765625 13.15984375 3.47765625 13.83984375 1.09765625 C14.82984375 1.42765625 15.81984375 1.75765625 16.83984375 2.09765625 C16.83984375 4.07765625 16.83984375 6.05765625 16.83984375 8.09765625 C17.49984375 8.09765625 18.15984375 8.09765625 18.83984375 8.09765625 C18.83984375 8.75765625 18.83984375 9.41765625 18.83984375 10.09765625 C18.17984375 10.09765625 17.51984375 10.09765625 16.83984375 10.09765625 C16.17984375 12.73765625 15.51984375 15.37765625 14.83984375 18.09765625 C15.80921875 18.38640625 16.77859375 18.67515625 17.77734375 18.97265625 C20.83984375 20.09765625 20.83984375 20.09765625 21.83984375 22.09765625 C19.35962777 25.81798022 17.47006447 27.69010107 13.08984375 28.78515625 C12.34734375 28.88828125 11.60484375 28.99140625 10.83984375 29.09765625 C10.71609375 30.21140625 10.59234375 31.32515625 10.46484375 32.47265625 C9.83984375 36.09765625 9.83984375 36.09765625 7.83984375 38.09765625 C8.00484375 38.92265625 8.16984375 39.74765625 8.33984375 40.59765625 C8.50484375 41.42265625 8.66984375 42.24765625 8.83984375 43.09765625 C6.83984375 45.09765625 6.83984375 45.09765625 3.83984375 45.34765625 C0.83984375 45.09765625 0.83984375 45.09765625 -1.16015625 43.09765625 C-0.97453125 42.12828125 -0.78890625 41.15890625 -0.59765625 40.16015625 C-0.45328125 39.14953125 -0.30890625 38.13890625 -0.16015625 37.09765625 C-1.57682292 35.51432292 -1.57682292 35.51432292 -3.16015625 34.09765625 C-3.34765625 31.41015625 -3.34765625 31.41015625 -3.16015625 29.09765625 C-2.17015625 28.76765625 -1.18015625 28.43765625 -0.16015625 28.09765625 C-0.59328125 27.52015625 -1.02640625 26.94265625 -1.47265625 26.34765625 C-2.55526017 24.90418436 -3.61962377 23.44674394 -4.66015625 21.97265625 C-6.20256867 19.85040089 -6.20256867 19.85040089 -9.16015625 18.09765625 C-8.50015625 18.09765625 -7.84015625 18.09765625 -7.16015625 18.09765625 C-6.83015625 16.77765625 -6.50015625 15.45765625 -6.16015625 14.09765625 C-3.85015625 14.75765625 -1.54015625 15.41765625 0.83984375 16.09765625 C0.50984375 16.75765625 0.17984375 17.41765625 -0.16015625 18.09765625 C1.48984375 18.42765625 3.13984375 18.75765625 4.83984375 19.09765625 C4.83984375 19.75765625 4.83984375 20.41765625 4.83984375 21.09765625 C4.50984375 21.42765625 4.17984375 21.75765625 3.83984375 22.09765625 C3.79920543 23.7638274 3.79712275 25.4315372 3.83984375 27.09765625 C6.71503825 25.80877596 8.84700015 24.56498642 10.83984375 22.09765625 C11.16984375 20.77765625 11.49984375 19.45765625 11.83984375 18.09765625 C8.53984375 17.76765625 5.23984375 17.43765625 1.83984375 17.09765625 C2.82984375 16.10765625 3.81984375 15.11765625 4.83984375 14.09765625 C4.83984375 12.77765625 4.83984375 11.45765625 4.83984375 10.09765625 C2.89078125 10.37609375 2.89078125 10.37609375 0.90234375 10.66015625 C-1.3125 10.9765625 -1.3125 10.9765625 -3.16015625 11.09765625 C-4.16015625 10.09765625 -4.16015625 10.09765625 -4.29296875 8.06640625 C-4.28910156 6.844375 -4.28910156 6.844375 -4.28515625 5.59765625 C-4.28773438 4.78296875 -4.2903125 3.96828125 -4.29296875 3.12890625 C-4.07207859 -0.24941379 -3.47186982 0.10728893 0 0 Z M1.83984375 29.09765625 C5.83984375 30.09765625 5.83984375 30.09765625 5.83984375 30.09765625 Z " fill="#295B69" transform="translate(148.16015625,106.90234375)"/>
<path d="M0 0 C-0.33 3.3 -0.66 6.6 -1 10 C-1.66 9.67 -2.32 9.34 -3 9 C-5.37402501 8.92883618 -7.75000677 8.91590915 -10.125 8.9375 C-11.40632812 8.94652344 -12.68765625 8.95554687 -14.0078125 8.96484375 C-14.99523437 8.97644531 -15.98265625 8.98804687 -17 9 C-17 6.69 -17 4.38 -17 2 C-12.38 2 -7.76 2 -3 2 C-3 1.34 -3 0.68 -3 0 C-7.62 0.33 -12.24 0.66 -17 1 C-17 3.97 -17 6.94 -17 10 C-15.02 10 -13.04 10 -11 10 C-11 10.66 -11 11.32 -11 12 C-10.01 12.66 -9.02 13.32 -8 14 C-8.99 14.66 -9.98 15.32 -11 16 C-7.7 16.66 -4.4 17.32 -1 18 C-2.38960373 22.4214664 -4.35602241 25.11871539 -8 28 C-10.8125 27.8125 -10.8125 27.8125 -13 27 C-12.34 26.34 -11.68 25.68 -11 25 C-11.33 25 -11.66 25 -12 25 C-12 23.35 -12 21.7 -12 20 C-11.01 20.33 -10.02 20.66 -9 21 C-9 20.34 -9 19.68 -9 19 C-10.65 19 -12.3 19 -14 19 C-14.33 18.34 -14.66 17.68 -15 17 C-15.99 16.608125 -16.98 16.21625 -18 15.8125 C-21 14 -21 14 -21.9375 10.4375 C-22 7 -22 7 -21 5 C-20.835 4.154375 -20.67 3.30875 -20.5 2.4375 C-20 0 -20 0 -19 -1 C-16.36745541 -1.29152339 -13.76560028 -1.51528694 -11.125 -1.6875 C-10.02478516 -1.77741211 -10.02478516 -1.77741211 -8.90234375 -1.86914062 C-4.98293604 -2.12972055 -3.3565738 -2.23771586 0 0 Z " fill="#033B4D" transform="translate(162,107)"/>
<path d="M0 0 C2.31 0.33 4.62 0.66 7 1 C7.59732819 3.76264289 8 6.16032769 8 9 C8.66 9.66 9.32 10.32 10 11 C10.125 14.125 10.125 14.125 10 17 C10.99 17.33 11.98 17.66 13 18 C10.66666667 18 8.33333333 18 6 18 C5.34 18.33 4.68 18.66 4 19 C4 21.64 4 24.28 4 27 C3.39671875 27.19335938 2.7934375 27.38671875 2.171875 27.5859375 C1.37265625 27.84632812 0.5734375 28.10671875 -0.25 28.375 C-1.03890625 28.63023438 -1.8278125 28.88546875 -2.640625 29.1484375 C-4.86627958 29.95173667 -6.90931672 30.89711662 -9 32 C-9.0825 31.21625 -9.165 30.4325 -9.25 29.625 C-9.70849401 26.8553382 -9.70849401 26.8553382 -12 25.875 C-12.99 25.441875 -12.99 25.441875 -14 25 C-14.33 24.01 -14.66 23.02 -15 22 C-13.68 21.01 -12.36 20.02 -11 19 C-11.33 20.65 -11.66 22.3 -12 24 C-7.22426677 26.61895048 -3.15565119 25.83119431 2 25 C1.505 22.525 1.505 22.525 1 20 C-1.16874252 20.50603992 -2.99967627 20.99983813 -5 22 C-6.07817935 18.77269804 -5.94858069 17.01873669 -4.6875 13.875 C-4.42324219 13.19179687 -4.15898437 12.50859375 -3.88671875 11.8046875 C-3 10 -3 10 -1 8 C-1.165 7.195625 -1.33 6.39125 -1.5 5.5625 C-2 3 -2 3 0 0 Z " fill="#0F4354" transform="translate(149,76)"/>
<path d="M0 0 C0.99386719 0.02707031 1.98773438 0.05414063 3.01171875 0.08203125 C4.15060547 0.13423828 4.15060547 0.13423828 5.3125 0.1875 C5.42073773 2.43643954 5.49819645 4.68687575 5.5625 6.9375 C5.60890625 8.19046875 5.6553125 9.4434375 5.703125 10.734375 C5.3125 14.1875 5.3125 14.1875 3.5625 16.625 C0.00513388 19.09539314 -2.44914443 18.47005704 -6.6875 18.1875 C-7.6875 13.4375 -7.6875 13.4375 -7.6875 11.1875 C-8.0175 10.8575 -8.3475 10.5275 -8.6875 10.1875 C-9.15484854 3.87829465 -9.15484854 3.87829465 -7.52734375 1.47265625 C-4.95442212 -0.32456502 -3.10292567 -0.10951502 0 0 Z M-2.6875 4.1875 C-3.0175 5.1775 -3.3475 6.1675 -3.6875 7.1875 C-3.3575 7.8475 -3.0275 8.5075 -2.6875 9.1875 C-2.0275 9.1875 -1.3675 9.1875 -0.6875 9.1875 C-0.3575 7.8675 -0.0275 6.5475 0.3125 5.1875 C-0.6775 4.8575 -1.6675 4.5275 -2.6875 4.1875 Z " fill="#003957" transform="translate(143.6875,156.8125)"/>
<path d="M0 0 C10.10076046 -0.48098859 10.10076046 -0.48098859 13.6875 1.4375 C15.65179613 5.27255435 15.79069482 8.78296094 15 13 C13.12379387 15.50160818 11.76108697 16.61945652 9 18 C6.03 18 3.06 18 0 18 C0 12.06 0 6.12 0 0 Z M5 4 C5 7.3 5 10.6 5 14 C9.13423413 12.50849326 9.13423413 12.50849326 9.875 9.5625 C10.26646351 6.75556583 10.26646351 6.75556583 8 4 C7.01 4 6.02 4 5 4 Z " fill="#003957" transform="translate(177,152)"/>
<path d="M0 0 C0.99 0 1.98 0 3 0 C3 0.66 3 1.32 3 2 C6.3 2 9.6 2 13 2 C13 3.65 13 5.3 13 7 C9.98968256 7.93423645 9.13349732 8.04449911 6 7 C4.66049824 7.30761001 3.32755774 7.64436068 2 8 C0.31441541 8.09053693 -1.37449336 8.13009203 -3.0625 8.125 C-4.34833984 8.12886719 -4.34833984 8.12886719 -5.66015625 8.1328125 C-8 8 -8 8 -11 7 C-11.61875 7.165 -12.2375 7.33 -12.875 7.5 C-15.51269032 8.12063302 -17.36964305 7.5395604 -20 7 C-20.99 7.33 -21.98 7.66 -23 8 C-23 8.66 -23 9.32 -23 10 C-23.66 10 -24.32 10 -25 10 C-25 7.36 -25 4.72 -25 2 C-16.75 2 -8.5 2 0 2 C0 1.34 0 0.68 0 0 Z " fill="#003957" transform="translate(117,174)"/>
<path d="M0 0 C0 1.65 0 3.3 0 5 C-2.64 5 -5.28 5 -8 5 C-7.67 7.31 -7.34 9.62 -7 12 C-4.69 12.33 -2.38 12.66 0 13 C-0.33 14.65 -0.66 16.3 -1 18 C-6.02237015 18.29543354 -8.9107578 18.00679573 -13 15 C-14.65094122 13.34905878 -14.28867693 11.45514063 -14.375 9.1875 C-14.31772438 5.54789482 -14.2752393 4.37290486 -12.0625 1.375 C-7.94958338 -0.47161563 -4.43669452 -0.34797604 0 0 Z " fill="#003957" transform="translate(98,152)"/>
<path d="M0 0 C0.66 0.99 1.32 1.98 2 3 C1.01 3.33 0.02 3.66 -1 4 C-0.67 4.33 -0.34 4.66 0 5 C0.1875 7.9375 0.1875 7.9375 0 11 C-0.66 11.66 -1.32 12.32 -2 13 C-1.835 13.825 -1.67 14.65 -1.5 15.5 C-1.335 16.325 -1.17 17.15 -1 18 C-3 20 -3 20 -6 20.25 C-9 20 -9 20 -11 18 C-10.835 17.113125 -10.67 16.22625 -10.5 15.3125 C-9.9028931 11.35666677 -10.72499496 8.75001482 -12 5 C-10.14375 5.1546875 -10.14375 5.1546875 -8.25 5.3125 C-6.06374764 5.39389166 -6.06374764 5.39389166 -4 5 C-1.4595774 2.66169042 -1.4595774 2.66169042 0 0 Z " fill="#03374A" transform="translate(158,132)"/>
<path d="M0 0 C1.17369141 -0.02513672 1.17369141 -0.02513672 2.37109375 -0.05078125 C5.07599497 0.39762483 5.93787349 1.13611354 7.5625 3.3125 C8.10318562 6.94281776 8.02629841 8.63464079 5.9375 11.6875 C2.86772452 13.7878727 1.21693439 13.84543835 -2.4375 13.3125 C-4.8125 12.3125 -4.8125 12.3125 -6.4375 10.3125 C-6.90323923 7.46566895 -6.71675007 5.24462569 -6.4375 2.3125 C-4.02263057 -0.10236943 -3.31042211 0.0163075 0 0 Z M-1.4375 4.3125 C-1.1075 5.9625 -0.7775 7.6125 -0.4375 9.3125 C0.5525 8.3225 1.5425 7.3325 2.5625 6.3125 C2.2325 5.6525 1.9025 4.9925 1.5625 4.3125 C0.5725 4.3125 -0.4175 4.3125 -1.4375 4.3125 Z " fill="#003957" transform="translate(105.4375,156.6875)"/>
<path d="M0 0 C2 2 2 2 2.01171875 4.34765625 C1.90472656 5.24355469 1.79773438 6.13945312 1.6875 7.0625 C1.58824219 7.96097656 1.48898438 8.85945312 1.38671875 9.78515625 C1 12 1 12 0 13 C-3.85797355 13.36395977 -6.15988698 13.56007535 -9.4375 11.375 C-11.44814771 8.31881548 -11.53520313 6.59350675 -11 3 C-8.69193567 -1.32762062 -4.29124892 -0.34057531 0 0 Z " fill="#003957" transform="translate(132,157)"/>
<path d="M0 0 C2.82272533 0.0923801 3.79240804 0.17856948 6.125 1.875 C7.54882408 5.67186421 6.84237296 8.41064577 6.0625 12.375 C5.0625 13.375 5.0625 13.375 1.75 13.625 C-1.9375 13.375 -1.9375 13.375 -4.375 12.375 C-6.92297035 9.11359795 -6.32417164 6.43505224 -5.9375 2.375 C-3.9375 0.375 -3.9375 0.375 0 0 Z " fill="#003957" transform="translate(199.9375,156.625)"/>
<path d="M0 0 C1.45792884 -0.05399736 2.91642712 -0.09279177 4.375 -0.125 C5.18710938 -0.14820313 5.99921875 -0.17140625 6.8359375 -0.1953125 C9 0 9 0 11 2 C11.1953125 4.6015625 11.1953125 4.6015625 11.125 7.625 C11.10695312 8.62789062 11.08890625 9.63078125 11.0703125 10.6640625 C11.03550781 11.82035156 11.03550781 11.82035156 11 13 C9.37536158 13.05395478 7.75021459 13.09277195 6.125 13.125 C5.22007812 13.14820313 4.31515625 13.17140625 3.3828125 13.1953125 C1 13 1 13 -1 11 C-1.20872719 8.21697081 -1.25640898 6.51281795 0 4 C0 2.68 0 1.36 0 0 Z " fill="#003957" transform="translate(151,157)"/>
<path d="M0 0 C7.92 0 15.84 0 24 0 C24.33 1.32 24.66 2.64 25 4 C21.83974475 5.86242421 19.58505186 6.22402856 15.9375 6.125 C15.08027344 6.10695312 14.22304687 6.08890625 13.33984375 6.0703125 C12.56769531 6.04710937 11.79554688 6.02390625 11 6 C8.97905928 6 6.95802 6.0212649 4.9375 6.0625 C2 6 2 6 0 5 C0 3.35 0 1.7 0 0 Z " fill="#003957" transform="translate(175,176)"/>
<path d="M0 0 C2.4375 1.0625 2.4375 1.0625 5 3 C6.19467537 7.60803357 5.94784925 10.26075375 5 15 C1.37 15 -2.26 15 -6 15 C-5.34 11.7 -4.68 8.4 -4 5 C-3.01 4.67 -2.02 4.34 -1 4 C-0.26676204 1.98491642 -0.26676204 1.98491642 0 0 Z " fill="#013649" transform="translate(134,100)"/>
<path d="M0 0 C2.375 -0.1875 2.375 -0.1875 5 0 C5.66 0.99 6.32 1.98 7 3 C7.33 2.01 7.66 1.02 8 0 C9.98 0 11.96 0 14 0 C13.54803755 1.60597325 13.08817673 3.20972508 12.625 4.8125 C12.36976563 5.70582031 12.11453125 6.59914062 11.8515625 7.51953125 C11 10 11 10 9 13 C6.375 13.1875 6.375 13.1875 4 13 C3.32694982 11.39850114 2.66177773 9.79368971 2 8.1875 C1.62875 7.29417969 1.2575 6.40085938 0.875 5.48046875 C0 3 0 3 0 0 Z " fill="#003957" transform="translate(207,157)"/>
<path d="M0 0 C2.05078125 0.03255208 4.1015625 0.06510417 6.15234375 0.09765625 C6.13171875 0.90203125 6.11109375 1.70640625 6.08984375 2.53515625 C5.85600754 5.0312051 5.85600754 5.0312051 7.15234375 6.09765625 C7.40234375 8.53515625 7.40234375 8.53515625 7.15234375 11.09765625 C3.50816635 13.52710785 1.43993103 13.259452 -2.84765625 13.09765625 C-3.78615415 8.63979123 -3.87573735 5.55267437 -2.84765625 1.09765625 C-1.84765625 0.09765625 -1.84765625 0.09765625 0 0 Z " fill="#003957" transform="translate(167.84765625,156.90234375)"/>
<path d="M0 0 C2.31 0.66 4.62 1.32 7 2 C6.67 2.66 6.34 3.32 6 4 C7.65 4.33 9.3 4.66 11 5 C11 5.66 11 6.32 11 7 C10.67 7.33 10.34 7.66 10 8 C9.95936168 9.66617115 9.957279 11.33388095 10 13 C10.598125 12.67 11.19625 12.34 11.8125 12 C14 11 14 11 17 11 C16.34 11.804375 15.68 12.60875 15 13.4375 C12.89745486 15.58961915 12.89745486 15.58961915 13 17 C10.36 17 7.72 17 5 17 C5 18.65 5 20.3 5 22 C3 20 3 20 2.875 17.375 C2.91625 16.59125 2.9575 15.8075 3 15 C3.99 14.67 4.98 14.34 6 14 C5.3503125 13.13375 5.3503125 13.13375 4.6875 12.25 C3.60489608 10.80652811 2.54053248 9.34908769 1.5 7.875 C-0.04241242 5.75274464 -0.04241242 5.75274464 -3 4 C-2.34 4 -1.68 4 -1 4 C-0.67 2.68 -0.34 1.36 0 0 Z " fill="#356270" transform="translate(142,121)"/>
<path d="M0 0 C0.99 0.99 1.98 1.98 3 3 C2.67 3.66 2.34 4.32 2 5 C2.99 5 3.98 5 5 5 C4.979375 6.093125 4.95875 7.18625 4.9375 8.3125 C4.81455548 11.94384191 4.81455548 11.94384191 6 15 C2.7 15 -0.6 15 -4 15 C-4.66 11.37 -5.32 7.74 -6 4 C-4.02 2.68 -2.04 1.36 0 0 Z " fill="#013548" transform="translate(169,100)"/>
<path d="M0 0 C6.6 0 13.2 0 20 0 C20 1.98 20 3.96 20 6 C19.0925 5.814375 18.185 5.62875 17.25 5.4375 C14.18612027 5.02505465 12.8702731 5.25928436 10 6 C8.33178677 5.67449498 6.66500443 5.34153937 5 5 C4.01 5.33 3.02 5.66 2 6 C2 6.66 2 7.32 2 8 C1.34 8 0.68 8 0 8 C0 5.36 0 2.72 0 0 Z " fill="#003957" transform="translate(133,176)"/>
<path d="M0 0 C1.65 0 3.3 0 5 0 C5.33 0.66 5.66 1.32 6 2 C9.63 2 13.26 2 17 2 C17 3.65 17 5.3 17 7 C11.63676117 8.15961921 6.46577383 8 1 8 C0.17361624 5.10765685 0 3.11257569 0 0 Z " fill="#003957" transform="translate(72,174)"/>
<path d="M0 0 C0.66 0 1.32 0 2 0 C1.67 1.65 1.34 3.3 1 5 C1.969375 5.28875 2.93875 5.5775 3.9375 5.875 C7 7 7 7 8 9 C5.51978402 12.72032397 3.63022072 14.59244482 -0.75 15.6875 C-1.4925 15.790625 -2.235 15.89375 -3 16 C-3 17.65 -3 19.3 -3 21 C-3.12375 20.360625 -3.2475 19.72125 -3.375 19.0625 C-3.58125 18.381875 -3.7875 17.70125 -4 17 C-4.66 16.67 -5.32 16.34 -6 16 C-5.01 15.34 -4.02 14.68 -3 14 C-2.95556653 12.00049364 -2.96079185 9.99961564 -3 8 C-2.0625 5.3125 -2.0625 5.3125 -1 3 C-0.67 2.01 -0.34 1.02 0 0 Z " fill="#215262" transform="translate(162,120)"/>
<path d="M0 0 C1.65 0 3.3 0 5 0 C5 6.27 5 12.54 5 19 C3.35 19 1.7 19 0 19 C0 12.73 0 6.46 0 0 Z " fill="#003957" transform="translate(114,151)"/>
<path d="M0 0 C0.66 0.33 1.32 0.66 2 1 C2.33 1.99 2.66 2.98 3 4 C5.47266765 3.65555119 5.47266765 3.65555119 8 3 C8.33 2.34 8.66 1.68 9 1 C9 3.31 9 5.62 9 8 C4.61400938 9.46199687 1.46654489 10.4888483 -3 9 C-3.99 8.34 -4.98 7.68 -6 7 C-3 1 -3 1 0 0 Z " fill="#0F4556" transform="translate(142,93)"/>
<path d="M0 0 C2.31 0.33 4.62 0.66 7 1 C7.66835187 4.0911274 8 6.83229329 8 10 C4.7 10 1.4 10 -2 10 C-1.67 9.34 -1.34 8.68 -1 8 C-1.2784375 6.7934375 -1.2784375 6.7934375 -1.5625 5.5625 C-2 3 -2 3 0 0 Z " fill="#164A5B" transform="translate(149,76)"/>
<path d="M0 0 C1 1 1 1 1.25 3.9375 C1.1675 4.948125 1.085 5.95875 1 7 C0.01 7.66 -0.98 8.32 -2 9 C-2.639375 8.835 -3.27875 8.67 -3.9375 8.5 C-6.61990832 7.8497192 -7.69891508 8.60291272 -10 10 C-10 9.01 -10 8.02 -10 7 C-9.34 6.67 -8.68 6.34 -8 6 C-8 4.02 -8 2.04 -8 0 C-4.69676014 -1.10107995 -3.29495231 -0.86709271 0 0 Z " fill="#134A5A" transform="translate(190,110)"/>
<path d="M0 0 C1.32 0.66 2.64 1.32 4 2 C3.01 2.495 3.01 2.495 2 3 C2 5.64 2 8.28 2 11 C1.39671875 11.19335938 0.7934375 11.38671875 0.171875 11.5859375 C-0.62734375 11.84632812 -1.4265625 12.10671875 -2.25 12.375 C-3.03890625 12.63023438 -3.8278125 12.88546875 -4.640625 13.1484375 C-6.86627958 13.95173667 -8.90931672 14.89711662 -11 16 C-11.0825 15.21625 -11.165 14.4325 -11.25 13.625 C-11.70849401 10.8553382 -11.70849401 10.8553382 -14 9.875 C-14.99 9.441875 -14.99 9.441875 -16 9 C-16.33 8.01 -16.66 7.02 -17 6 C-15.68 5.01 -14.36 4.02 -13 3 C-13.33 4.65 -13.66 6.3 -14 8 C-9.22426677 10.61895048 -5.15565119 9.83119431 0 9 C-0.34444881 6.52733235 -0.34444881 6.52733235 -1 4 C-1.66 3.67 -2.32 3.34 -3 3 C-2.01 2.01 -1.02 1.02 0 0 Z " fill="#3E6977" transform="translate(151,92)"/>
<path d="M0 0 C2.81908669 1.23868961 3.70411201 2.87339666 5.3125 5.46875 C5.83328125 6.29503906 6.3540625 7.12132812 6.890625 7.97265625 C7.27734375 8.61074219 7.6640625 9.24882812 8.0625 9.90625 C4.80968472 10.39417229 2.71536916 10.30639561 -0.1171875 8.5703125 C-2.1042909 7.06407398 -4.0404114 5.52407175 -5.9375 3.90625 C-2.51965962 -0.12191901 -2.51965962 -0.12191901 0 0 Z " fill="#033A4C" transform="translate(140.9375,126.09375)"/>
<path d="M0 0 C1.65 0 3.3 0 5 0 C6.61949011 2.57213134 7.04408751 3.67669159 6.625 6.75 C6.41875 7.4925 6.2125 8.235 6 9 C5.34 9 4.68 9 4 9 C4 10.32 4 11.64 4 13 C2.68 12.67 1.36 12.34 0 12 C0 8.04 0 4.08 0 0 Z " fill="#02394B" transform="translate(176,108)"/>
<path d="M0 0 C2.4375 0.375 2.4375 0.375 5 1 C5.33 1.66 5.66 2.32 6 3 C6.99 3 7.98 3 9 3 C8.125 7.875 8.125 7.875 7 9 C4.0625 9.1875 4.0625 9.1875 1 9 C0.34 8.34 -0.32 7.68 -1 7 C-0.625 3.375 -0.625 3.375 0 0 Z " fill="#144959" transform="translate(148,143)"/>
<path d="M0 0 C3.3 0 6.6 0 10 0 C10.33 1.65 10.66 3.3 11 5 C7.04395608 6.21724428 2.79359325 6.89679663 -1 5 C-0.67 3.35 -0.34 1.7 0 0 Z " fill="#003957" transform="translate(203,176)"/>
<path d="M0 0 C2.625 0.375 2.625 0.375 5 1 C5 3.31 5 5.62 5 8 C2.39417629 8.93065133 1.35801776 9.14917407 -1.25 8.0625 C-1.8275 7.711875 -2.405 7.36125 -3 7 C-2.25 2.25 -2.25 2.25 0 0 Z " fill="#0B4051" transform="translate(125,85)"/>
<path d="M0 0 C3.3 0 6.6 0 10 0 C10.33 1.32 10.66 2.64 11 4 C7.36576791 6.32590854 4.22911669 6.16265833 0 6 C0 4.02 0 2.04 0 0 Z " fill="#003957" transform="translate(221,176)"/>
<path d="M0 0 C-0.33 3.3 -0.66 6.6 -1 10 C-1.33 10 -1.66 10 -2 10 C-2.33 7.03 -2.66 4.06 -3 1 C-7.62 1 -12.24 1 -17 1 C-17.33 3.97 -17.66 6.94 -18 10 C-18.33 10 -18.66 10 -19 10 C-19.144375 9.2575 -19.28875 8.515 -19.4375 7.75 C-19.93631867 5.07188726 -19.93631867 5.07188726 -20.6875 2.8125 C-20.790625 2.214375 -20.89375 1.61625 -21 1 C-18.10065706 -1.89934294 -14.96037167 -1.53745115 -11.0625 -1.75 C-9.96905273 -1.83314453 -9.96905273 -1.83314453 -8.85351562 -1.91796875 C-4.9579345 -2.15363177 -3.33246413 -2.22164275 0 0 Z " fill="#002F42" transform="translate(162,107)"/>
<path d="M0 0 C3.3 0 6.6 0 10 0 C10 1.98 10 3.96 10 6 C9.0925 5.835 8.185 5.67 7.25 5.5 C3.88912497 4.89862854 3.88912497 4.89862854 0 5 C0 3.35 0 1.7 0 0 Z " fill="#003957" transform="translate(164,176)"/>
<path d="M0 0 C2.375 0.3125 2.375 0.3125 5 1 C5.66 1.99 6.32 2.98 7 4 C6 5 6 5 2.62109375 5.09765625 C1.22652923 5.09098369 -0.16801743 5.07902532 -1.5625 5.0625 C-2.27341797 5.05798828 -2.98433594 5.05347656 -3.71679688 5.04882812 C-5.47790013 5.03700864 -7.23896036 5.01907263 -9 5 C-8.67 4.34 -8.34 3.68 -8 3 C-5.35139573 2.40644386 -2.70802678 2.25790731 0 2 C0 1.34 0 0.68 0 0 Z " fill="#0A4153" transform="translate(153,101)"/>
<path d="M0 0 C1.32 0.66 2.64 1.32 4 2 C3.6875 4.375 3.6875 4.375 3 7 C2.01 7.66 1.02 8.32 0 9 C-1.5625 7.75 -1.5625 7.75 -3 6 C-2.72963853 3.02602384 -2.14553974 2.14553974 0 0 Z " fill="#094152" transform="translate(178,86)"/>
<path d="M0 0 C0.99 0.33 1.98 0.66 3 1 C3.04254356 2.99954746 3.04080783 5.00041636 3 7 C2 8 2 8 -0.5625 8.0625 C-1.366875 8.041875 -2.17125 8.02125 -3 8 C-3.36923077 3.44615385 -3.36923077 3.44615385 -1.5 1.1875 C-1.005 0.795625 -0.51 0.40375 0 0 Z " fill="#033A4C" transform="translate(127,135)"/>
<path d="M0 0 C0.99 0.33 1.98 0.66 3 1 C3 2.98 3 4.96 3 7 C3.66 7 4.32 7 5 7 C5 7.66 5 8.32 5 9 C4.34 9 3.68 9 3 9 C3 9.66 3 10.32 3 11 C2.34 11 1.68 11 1 11 C-1.43769218 7.34346173 -1.23944439 5.30999899 -1 1 C-0.67 0.67 -0.34 0.34 0 0 Z " fill="#1F5463" transform="translate(162,108)"/>
<path d="M0 0 C0.33 0 0.66 0 1 0 C1 2.31 1 4.62 1 7 C-1.31 7.66 -3.62 8.32 -6 9 C-4.125 4.25 -4.125 4.25 -3 2 C-2.01 2 -1.02 2 0 2 C0 1.34 0 0.68 0 0 Z " fill="#013447" transform="translate(150,94)"/>
<path d="M0 0 C1.65 0 3.3 0 5 0 C4.01 0.33 3.02 0.66 2 1 C2.33 4.3 2.66 7.6 3 11 C2.34 11 1.68 11 1 11 C1 9.35 1 7.7 1 6 C-1.64 6 -4.28 6 -7 6 C-7 5.67 -7 5.34 -7 5 C-4.69 5 -2.38 5 0 5 C0 3.35 0 1.7 0 0 Z " fill="#316473" transform="translate(174,107)"/>
<path d="M0 0 C1.65 0 3.3 0 5 0 C5.33 1.32 5.66 2.64 6 4 C4.125 5.0625 4.125 5.0625 2 6 C1.34 5.67 0.68 5.34 0 5 C0 3.35 0 1.7 0 0 Z " fill="#003957" transform="translate(156,176)"/>
<path d="M0 0 C0.99 0.33 1.98 0.66 3 1 C3 1.66 3 2.32 3 3 C4.175625 2.2265625 4.175625 2.2265625 5.375 1.4375 C6.24125 0.963125 7.1075 0.48875 8 0 C8.66 0.33 9.32 0.66 10 1 C8.7934375 1.8971875 8.7934375 1.8971875 7.5625 2.8125 C4.77672016 4.80947276 4.77672016 4.80947276 4 8 C1.10067643 5.60490662 0.49831724 3.68754757 0 0 Z " fill="#5E8590" transform="translate(159,100)"/>
<path d="M0 0 C-0.33 2.31 -0.66 4.62 -1 7 C-1.33 7 -1.66 7 -2 7 C-2 5.02 -2 3.04 -2 1 C-2.66 1 -3.32 1 -4 1 C-4.66 2.32 -5.32 3.64 -6 5 C-6.66 5 -7.32 5 -8 5 C-7.625 3.0625 -7.625 3.0625 -7 1 C-4.53721199 -0.231394 -2.7204945 -0.07159196 0 0 Z " fill="#3D6775" transform="translate(130,107)"/>
<path d="M0 0 C0.33 0.66 0.66 1.32 1 2 C0.38125 2.4125 -0.2375 2.825 -0.875 3.25 C-3.06768281 5.05573879 -3.92788417 6.4090534 -5 9 C-6 8 -6 8 -6.1875 5.5625 C-6 3 -6 3 -4 1 C-1.875 0.375 -1.875 0.375 0 0 Z " fill="#2B5969" transform="translate(128,133)"/>
<path d="M0 0 C1.32 0.66 2.64 1.32 4 2 C3.01 2.495 3.01 2.495 2 3 C2 5.64 2 8.28 2 11 C1.34 11 0.68 11 0 11 C-0.12375 9.865625 -0.2475 8.73125 -0.375 7.5625 C-0.58125 6.386875 -0.7875 5.21125 -1 4 C-1.66 3.67 -2.32 3.34 -3 3 C-2.01 2.01 -1.02 1.02 0 0 Z " fill="#366270" transform="translate(151,92)"/>
<path d="M0 0 C0.33 1.32 0.66 2.64 1 4 C1.99 4 2.98 4 4 4 C4.33 3.34 4.66 2.68 5 2 C5.99 3.98 6.98 5.96 8 8 C5.03 7.01 2.06 6.02 -1 5 C-0.67 3.35 -0.34 1.7 0 0 Z " fill="#003245" transform="translate(153,96)"/>
<path d="M0 0 C0.99 0.33 1.98 0.66 3 1 C2.505 1.4125 2.01 1.825 1.5 2.25 C-0.43386092 4.12202338 -0.43386092 4.12202338 0 8 C-0.66 8 -1.32 8 -2 8 C-2.66 6.68 -3.32 5.36 -4 4 C-2.68 2.68 -1.36 1.36 0 0 Z " fill="#164859" transform="translate(176,85)"/>
<path d="M0 0 C3.26954202 0.56371414 4.82575883 1.49962266 7 4 C6.67 4.99 6.34 5.98 6 7 C4 6 4 6 2 3 C1.34 2.67 0.68 2.34 0 2 C0 1.34 0 0.68 0 0 Z " fill="#2A5565" transform="translate(166,95)"/>
<path d="M0 0 C0.33 0 0.66 0 1 0 C1.28571429 7.42857143 1.28571429 7.42857143 -1 11 C-2.23076923 4.6 -2.23076923 4.6 -1.0625 1.5625 C-0.711875 1.046875 -0.36125 0.53125 0 0 Z " fill="#084252" transform="translate(142,110)"/>
<path d="M0 0 C2.08559201 3.43509272 2.08559201 3.43509272 1.6875 6.0625 C1.3471875 7.0215625 1.3471875 7.0215625 1 8 C0.67 8.99 0.34 9.98 0 11 C-1 10 -1 10 -1.1328125 7.96875 C-1.13023437 7.1540625 -1.12765625 6.339375 -1.125 5.5 C-1.12757813 4.6853125 -1.13015625 3.870625 -1.1328125 3.03125 C-1 1 -1 1 0 0 Z " fill="#4D7481" transform="translate(140,109)"/>
<path d="M0 0 C0.33 0 0.66 0 1 0 C1 1.98 1 3.96 1 6 C1.99 6.33 2.98 6.66 4 7 C0.85375007 7.26218749 -0.61837017 7.24754367 -3.3125 5.5 C-3.869375 5.005 -4.42625 4.51 -5 4 C-3.35 4 -1.7 4 0 4 C0 2.68 0 1.36 0 0 Z " fill="#3B6674" transform="translate(158,87)"/>
<path d="M0 0 C0.99 0.33 1.98 0.66 3 1 C2.67 3.31 2.34 5.62 2 8 C1.34 8 0.68 8 0 8 C0 5.36 0 2.72 0 0 Z " fill="#003957" transform="translate(218,174)"/>
<path d="M0 0 C0.66 0.33 1.32 0.66 2 1 C-0.97 3.475 -0.97 3.475 -4 6 C-4.33 4.68 -4.66 3.36 -5 2 C-2.625 0.9375 -2.625 0.9375 0 0 Z " fill="#003548" transform="translate(148,92)"/>
<path d="M0 0 C0.66 0 1.32 0 2 0 C2 2.64 2 5.28 2 8 C1.34 8 0.68 8 0 8 C0 5.36 0 2.72 0 0 Z " fill="#003957" transform="translate(215,174)"/>
</svg>
