<?xml version="1.0" encoding="UTF-8"?>
<svg version="1.1" xmlns="http://www.w3.org/2000/svg" width="291" height="93">
<path d="M0 0 C1.9453125 -0.29296875 1.9453125 -0.29296875 4.125 -0.1875 C5.40375 -0.125625 6.6825 -0.06375 8 0 C9.35925589 2.71851177 9.06268395 4.99117026 9 8 C9 8.66 9 9.32 9 10 C9.495 10.4125 9.99 10.825 10.5 11.25 C12.65847858 13.76822501 12.21374961 15.79375585 12 19 C13.98 19.33 15.96 19.66 18 20 C18.66 19.01 19.32 18.02 20 17 C25.33333333 15.66666667 25.33333333 15.66666667 28 17 C28.185625 15.7934375 28.185625 15.7934375 28.375 14.5625 C28.58125 13.716875 28.7875 12.87125 29 12 C31.76250036 10.61874982 33.94731099 10.80920694 37 11 C39 13 39 13 39.3125 16.5 C39.209375 17.655 39.10625 18.81 39 20 C36 22 36 22 33 22 C33.061875 23.2375 33.12375 24.475 33.1875 25.75 C33.20362826 28.78211302 33.10651023 29.82248296 31.5 32.5 C31.005 32.995 30.51 33.49 30 34 C30.33 34.66 30.66 35.32 31 36 C32.82303662 36.61166193 32.82303662 36.61166193 34.9375 37 C37.90810715 37.60382577 38.78691174 37.78691174 41 40 C41.969375 39.814375 42.93875 39.62875 43.9375 39.4375 C47 39 47 39 48.875 40 C50.60658065 43.07836561 50.37650785 45.54867807 50 49 C47 51 47 51 44.4375 50.625 C43.633125 50.41875 42.82875 50.2125 42 50 C41.34 50 40.68 50 40 50 C39.34 50.99 38.68 51.98 38 53 C34.375 53.1875 34.375 53.1875 31 53 C30.22757731 54.83700789 30.22757731 54.83700789 30 57 C30.474375 57.4125 30.94875 57.825 31.4375 58.25 C34.01912975 61.14142532 33.18509106 64.23648185 33 68 C33.804375 68.309375 34.60875 68.61875 35.4375 68.9375 C38 70 38 70 39 71 C39.04092937 73.33297433 39.04241723 75.66705225 39 78 C36.63554179 79.48873294 35.26095932 80.00636486 32.4375 79.9375 C30 79 30 79 28.5625 76.4375 C28.046875 75.633125 27.53125 74.82875 27 74 C25.00045254 73.95745644 22.99958364 73.95919217 21 74 C18.625 72 18.625 72 17 70 C14.98567734 70.50256112 14.98567734 70.50256112 13 72 C12.30643577 74.32548007 11.63850788 76.65880445 11 79 C10.01 79.33 9.02 79.66 8 80 C8.185625 81.27875 8.37125 82.5575 8.5625 83.875 C9.125 87.75 9.125 87.75 8 90 C6.72125 90.061875 5.4425 90.12375 4.125 90.1875 C3.04605469 90.23970703 3.04605469 90.23970703 1.9453125 90.29296875 C1.30335937 90.19628906 0.66140625 90.09960938 0 90 C-2 87 -2 87 -1.6875 84.375 C-1 82 -1 82 0 81 C-0.639375 80.71125 -1.27875 80.4225 -1.9375 80.125 C-4 79 -4 79 -5 77 C-5.039992 75.00039988 -5.04346799 72.99952758 -5 71 C-6.73575649 70.12563582 -6.73575649 70.12563582 -9 70 C-9.763125 70.66 -10.52625 71.32 -11.3125 72 C-14 74 -14 74 -17.8125 73.75 C-18.864375 73.5025 -19.91625 73.255 -21 73 C-21.12375 73.78375 -21.2475 74.5675 -21.375 75.375 C-22 78 -22 78 -24 80 C-27.125 79.625 -27.125 79.625 -30 79 C-32.18382353 73.66176471 -32.18382353 73.66176471 -31.375 70.75 C-30 69 -30 69 -27.9375 68.1875 C-26.9784375 67.5996875 -26.9784375 67.5996875 -26 67 C-25.32326553 63.59679066 -25.32326553 63.59679066 -25 60 C-24.34786461 58.65949948 -23.68620031 57.32338632 -23 56 C-23.33 55.34 -23.66 54.68 -24 54 C-25.155 53.690625 -26.31 53.38125 -27.5 53.0625 C-28.655 52.711875 -29.81 52.36125 -31 52 C-31.495 50.515 -31.495 50.515 -32 49 C-32.99 49.66 -33.98 50.32 -35 51 C-37.5625 51.25 -37.5625 51.25 -40 51 C-42 49 -42 49 -42.265625 47.125 C-42.26046875 46.42375 -42.2553125 45.7225 -42.25 45 C-42.25515625 44.29875 -42.2603125 43.5975 -42.265625 42.875 C-42 41 -42 41 -40 39 C-37.5 38.75 -37.5 38.75 -35 39 C-34.34 39.66 -33.68 40.32 -33 41 C-32.649375 40.34 -32.29875 39.68 -31.9375 39 C-30 37 -30 37 -26.3125 36.75 C-25.219375 36.8325 -24.12625 36.915 -23 37 C-23.54723683 33.62537285 -24.0549 31.91765 -26 29 C-25.938125 28.01 -25.87625 27.02 -25.8125 26 C-25.874375 25.01 -25.93625 24.02 -26 23 C-27.63631892 21.95107762 -29.30485863 20.95093297 -31 20 C-32 17.5625 -32 17.5625 -32 15 C-30.9375 12.6875 -30.9375 12.6875 -29 11 C-25.9375 10.625 -25.9375 10.625 -23 11 C-20.8614515 13.1385485 -20.57344937 14.13275314 -20 17 C-19.29875 16.7525 -18.5975 16.505 -17.875 16.25 C-13.87362122 15.90205402 -12.21617055 17.76266396 -9 20 C-8.01 19.67 -7.02 19.34 -6 19 C-5.31060191 16.67328146 -4.64533078 14.33932406 -4 12 C-3.443125 11.484375 -2.88625 10.96875 -2.3125 10.4375 C-1.879375 9.963125 -1.44625 9.48875 -1 9 C-1.29259485 6.99363529 -1.62633887 4.99285937 -2 3 C-1.34 2.01 -0.68 1.02 0 0 Z M-10 37 C-9 39 -9 39 -9 39 Z M3 49 C3 49.99 3 50.98 3 52 C3.66 52 4.32 52 5 52 C5 51.01 5 50.02 5 49 C4.34 49 3.68 49 3 49 Z " fill="#124E60" transform="translate(44,1)"/>
<path d="M0 0 C1 2 1 2 0.4375 4 C0.293125 4.66 0.14875 5.32 0 6 C1.765535 8.17990127 1.765535 8.17990127 3.97119141 8.22705078 C5.1494751 8.21134033 5.1494751 8.21134033 6.3515625 8.1953125 C7.20234375 8.18886719 8.053125 8.18242188 8.9296875 8.17578125 C9.81914063 8.15902344 10.70859375 8.14226563 11.625 8.125 C12.5221875 8.11597656 13.419375 8.10695313 14.34375 8.09765625 C16.56276586 8.0740497 18.78125077 8.0411231 21 8 C20.505 6.515 20.505 6.515 20 5 C17.49552484 3.78130071 17.49552484 3.78130071 15 3 C15.33 2.34 15.66 1.68 16 1 C17.32 1.33 18.64 1.66 20 2 C20 1.34 20 0.68 20 0 C20.66 0 21.32 0 22 0 C22.66 0.66 23.32 1.32 24 2 C25.98 1.34 27.96 0.68 30 0 C28.625 1.5 28.625 1.5 27 3 C26.34 3 25.68 3 25 3 C25.10828125 4.15628906 25.10828125 4.15628906 25.21875 5.3359375 C25.3115625 6.33882812 25.404375 7.34171875 25.5 8.375 C25.5928125 9.37273438 25.685625 10.37046875 25.78125 11.3984375 C26 14 26 14 26 16 C29.63 16.33 33.26 16.66 37 17 C37.08159574 12.83861737 36.98248524 9.0527516 36 5 C36.66 5.66 37.32 6.32 38 7 C39.90178785 7.60061233 39.90178785 7.60061233 42 8 C44.94858104 8.6070608 45.79947406 8.79947406 48 11 C48.969375 10.814375 49.93875 10.62875 50.9375 10.4375 C54 10 54 10 55.875 11 C57.60658065 14.07836561 57.37650785 16.54867807 57 20 C54 22 54 22 51.4375 21.625 C50.633125 21.41875 49.82875 21.2125 49 21 C48.34 21 47.68 21 47 21 C46.34 21.99 45.68 22.98 45 24 C41.375 24.1875 41.375 24.1875 38 24 C37.22757731 25.83700789 37.22757731 25.83700789 37 28 C37.474375 28.4125 37.94875 28.825 38.4375 29.25 C41.01912975 32.14142532 40.18509106 35.23648185 40 39 C40.804375 39.309375 41.60875 39.61875 42.4375 39.9375 C45 41 45 41 46 42 C46.04092937 44.33297433 46.04241723 46.66705225 46 49 C43.63554179 50.48873294 42.26095932 51.00636486 39.4375 50.9375 C37 50 37 50 35.5625 47.4375 C35.046875 46.633125 34.53125 45.82875 34 45 C32.00045254 44.95745644 29.99958364 44.95919217 28 45 C25.625 43 25.625 43 24 41 C21.98567734 41.50256112 21.98567734 41.50256112 20 43 C19.30643577 45.32548007 18.63850788 47.65880445 18 50 C16.515 50.495 16.515 50.495 15 51 C15.185625 52.27875 15.37125 53.5575 15.5625 54.875 C16.125 58.75 16.125 58.75 15 61 C13.72125 61.061875 12.4425 61.12375 11.125 61.1875 C10.04605469 61.23970703 10.04605469 61.23970703 8.9453125 61.29296875 C8.30335937 61.19628906 7.66140625 61.09960938 7 61 C5 58 5 58 5.3125 55.375 C6 53 6 53 7 52 C6.360625 51.71125 5.72125 51.4225 5.0625 51.125 C3 50 3 50 2 48 C1.960008 46.00039988 1.95653201 43.99952758 2 42 C-1.04913228 40.98888907 -1.04913228 40.98888907 -4 42 C-7.26008643 38.83047153 -10.22237877 35.60062011 -13 32 C-9.73045798 32.56371414 -8.17424117 33.49962266 -6 36 C-5.34 34.68 -4.68 33.36 -4 32 C-3.01 32 -2.02 32 -1 32 C-1.33 31.34 -1.66 30.68 -2 30 C-1.72057545 28.32345271 -1.39171753 26.65391846 -1 25 C-0.4225 25.309375 0.155 25.61875 0.75 25.9375 C2.84294184 26.92583364 4.74535275 27.5168613 7 28 C6.484375 28.5775 5.96875 29.155 5.4375 29.75 C3.76002659 31.85003037 3.76002659 31.85003037 4.25 34.0625 C4.4975 34.701875 4.745 35.34125 5 36 C5.33 36.99 5.66 37.98 6 39 C5.34 39.66 4.68 40.32 4 41 C4.78375 40.79375 5.5675 40.5875 6.375 40.375 C7.674375 40.189375 7.674375 40.189375 9 40 C9.66 40.66 10.32 41.32 11 42 C14.25326479 38.83710367 17.36725392 35.70534633 20 32 C20 31.01 20 30.02 20 29 C19.484375 29.495 18.96875 29.99 18.4375 30.5 C15.14360153 32.52701444 12.79877599 32.35173852 9 32 C8.34 31.34 7.68 30.68 7 30 C9.31 30 11.62 30 14 30 C14 29.34 14 28.68 14 28 C12.02 28 10.04 28 8 28 C8 27.34 8 26.68 8 26 C11.465 25.505 11.465 25.505 15 25 C15.33 24.01 15.66 23.02 16 22 C16.66 21.67 17.32 21.34 18 21 C16.85660156 20.93941406 15.71320312 20.87882812 14.53515625 20.81640625 C13.04425695 20.73201572 11.55337225 20.64736698 10.0625 20.5625 C9.30775391 20.52318359 8.55300781 20.48386719 7.77539062 20.44335938 C2.11328125 20.11328125 2.11328125 20.11328125 1 19 C0.92820036 17.48071962 0.91607993 15.95832518 0.9375 14.4375 C0.94652344 13.61121094 0.95554687 12.78492188 0.96484375 11.93359375 C0.97644531 11.29550781 0.98804688 10.65742187 1 10 C0.01 10 -0.98 10 -2 10 C-2.33 7.69 -2.66 5.38 -3 3 C-2.34 3 -1.68 3 -1 3 C-0.67 2.01 -0.34 1.02 0 0 Z " fill="#104A5D" transform="translate(37,30)"/>
<path d="M0 0 C1.9453125 -0.29296875 1.9453125 -0.29296875 4.125 -0.1875 C5.40375 -0.125625 6.6825 -0.06375 8 0 C9.35925589 2.71851177 9.06268395 4.99117026 9 8 C9 10.76223278 10.31425163 11.89281454 12 14 C9.69 13.67 7.38 13.34 5 13 C5 12.67 5 12.34 5 12 C2.69 12.33 0.38 12.66 -2 13 C-2.04125 14.093125 -2.0825 15.18625 -2.125 16.3125 C-3 20 -3 20 -5.8125 21.8125 C-6.864375 22.204375 -7.91625 22.59625 -9 23 C-12.17452084 24.25797836 -12.17452084 24.25797836 -14 27 C-15 29 -15 29 -16.9375 29.8125 C-20.14256124 31.65783829 -21.00186057 34.60501261 -22 38 C-22.48597997 40.67756272 -22.76170064 43.28338728 -23 46 C-22.34 46.33 -21.68 46.66 -21 47 C-21.99 47.495 -21.99 47.495 -23 48 C-23.65555119 50.52733235 -23.65555119 50.52733235 -24 53 C-25.98 53 -27.96 53 -30 53 C-30.66 51.68 -31.32 50.36 -32 49 C-32.99 49.66 -33.98 50.32 -35 51 C-37.5625 51.25 -37.5625 51.25 -40 51 C-42 49 -42 49 -42.265625 47.125 C-42.26046875 46.42375 -42.2553125 45.7225 -42.25 45 C-42.25515625 44.29875 -42.2603125 43.5975 -42.265625 42.875 C-42 41 -42 41 -40 39 C-37.5 38.75 -37.5 38.75 -35 39 C-34.34 39.66 -33.68 40.32 -33 41 C-32.649375 40.34 -32.29875 39.68 -31.9375 39 C-30 37 -30 37 -26.3125 36.75 C-25.219375 36.8325 -24.12625 36.915 -23 37 C-23.54723683 33.62537285 -24.0549 31.91765 -26 29 C-25.938125 28.01 -25.87625 27.02 -25.8125 26 C-25.874375 25.01 -25.93625 24.02 -26 23 C-27.63631892 21.95107762 -29.30485863 20.95093297 -31 20 C-32 17.5625 -32 17.5625 -32 15 C-30.9375 12.6875 -30.9375 12.6875 -29 11 C-25.9375 10.625 -25.9375 10.625 -23 11 C-20.8614515 13.1385485 -20.57344937 14.13275314 -20 17 C-19.29875 16.7525 -18.5975 16.505 -17.875 16.25 C-13.87362122 15.90205402 -12.21617055 17.76266396 -9 20 C-8.01 19.67 -7.02 19.34 -6 19 C-5.31060191 16.67328146 -4.64533078 14.33932406 -4 12 C-3.443125 11.484375 -2.88625 10.96875 -2.3125 10.4375 C-1.879375 9.963125 -1.44625 9.48875 -1 9 C-1.29259485 6.99363529 -1.62633887 4.99285937 -2 3 C-1.34 2.01 -0.68 1.02 0 0 Z " fill="#064054" transform="translate(44,1)"/>
<path d="M0 0 C1.46566406 -0.03867187 1.46566406 -0.03867187 2.9609375 -0.078125 C5.625 0.25 5.625 0.25 7.43359375 1.37890625 C9.12905283 4.04161085 9.14419787 6.30708033 9.3125 9.4375 C9.37824219 10.52417969 9.44398438 11.61085938 9.51171875 12.73046875 C9.54910156 13.56191406 9.58648437 14.39335938 9.625 15.25 C9.955 14.26 10.285 13.27 10.625 12.25 C12.605 12.25 14.585 12.25 16.625 12.25 C14.645 11.26 12.665 10.27 10.625 9.25 C10.4375 5.875 10.4375 5.875 10.625 2.25 C14.04594242 -0.03062828 15.30687222 0.03074993 19.3125 0.125 C20.80330078 0.15207031 20.80330078 0.15207031 22.32421875 0.1796875 C23.08347656 0.20289063 23.84273437 0.22609375 24.625 0.25 C24.295 1.9 23.965 3.55 23.625 5.25 C20.655 4.755 20.655 4.755 17.625 4.25 C17.625 4.91 17.625 5.57 17.625 6.25 C18.40875 6.37375 19.1925 6.4975 20 6.625 C22.625 7.25 22.625 7.25 24.625 9.25 C25 12.1875 25 12.1875 24.625 15.25 C22.41687416 17.46460603 21.03711209 18.1932019 17.92358398 18.62231445 C16.91626221 18.6193335 15.90894043 18.61635254 14.87109375 18.61328125 C13.76958984 18.61263672 12.66808594 18.61199219 11.53320312 18.61132812 C10.38787109 18.59521484 9.24253906 18.57910156 8.0625 18.5625 C6.33870117 18.56733398 6.33870117 18.56733398 4.58007812 18.57226562 C-3.97428876 18.51714082 -3.97428876 18.51714082 -7.375 16.25 C-7.77007893 11.90413172 -7.82831002 9.92996503 -5.375 6.25 C-5.65442455 4.57345271 -5.98328247 2.90391846 -6.375 1.25 C-4.64280072 -0.48219928 -2.35473192 0.03708239 0 0 Z M-1.375 4.25 C-2.035 4.91 -2.695 5.57 -3.375 6.25 C-1.725 6.25 -0.075 6.25 1.625 6.25 C1.295 5.59 0.965 4.93 0.625 4.25 C-0.035 4.25 -0.695 4.25 -1.375 4.25 Z M0.625 10.25 C0.295 11.24 -0.035 12.23 -0.375 13.25 C0.285 13.25 0.945 13.25 1.625 13.25 C1.955 12.26 2.285 11.27 2.625 10.25 C1.965 10.25 1.305 10.25 0.625 10.25 Z " fill="#000000" transform="translate(193.375,32.75)"/>
<path d="M0 0 C1 2 1 2 0.4375 4 C0.2209375 4.99 0.2209375 4.99 0 6 C1.765535 8.17990127 1.765535 8.17990127 3.97119141 8.22705078 C5.1494751 8.21134033 5.1494751 8.21134033 6.3515625 8.1953125 C7.20234375 8.18886719 8.053125 8.18242188 8.9296875 8.17578125 C9.81914063 8.15902344 10.70859375 8.14226563 11.625 8.125 C12.5221875 8.11597656 13.419375 8.10695313 14.34375 8.09765625 C16.56276586 8.0740497 18.78125077 8.0411231 21 8 C20.67 7.01 20.34 6.02 20 5 C17.49552484 3.78130071 17.49552484 3.78130071 15 3 C15.33 2.34 15.66 1.68 16 1 C17.32 1.33 18.64 1.66 20 2 C20 1.34 20 0.68 20 0 C20.66 0 21.32 0 22 0 C22.66 0.66 23.32 1.32 24 2 C25.98 1.34 27.96 0.68 30 0 C28.625 1.5 28.625 1.5 27 3 C26.34 3 25.68 3 25 3 C25.12568359 4.17369141 25.12568359 4.17369141 25.25390625 5.37109375 C25.35574219 6.38300781 25.45757812 7.39492188 25.5625 8.4375 C25.66691406 9.44683594 25.77132812 10.45617187 25.87890625 11.49609375 C25.91886719 12.32238281 25.95882812 13.14867187 26 14 C25.67 14.33 25.34 14.66 25 15 C24.9175 16.2375 24.835 17.475 24.75 18.75 C24.26713148 23.24872501 22.40131273 25.02385136 19 28 C18.67 28.99 18.34 29.98 18 31 C14.98675805 32.50662097 12.31713623 32.17770373 9 32 C8.34 31.34 7.68 30.68 7 30 C9.31 30 11.62 30 14 30 C14 29.34 14 28.68 14 28 C12.02 28 10.04 28 8 28 C8 27.34 8 26.68 8 26 C11.465 25.505 11.465 25.505 15 25 C15.33 24.01 15.66 23.02 16 22 C16.66 21.67 17.32 21.34 18 21 C16.85660156 20.93941406 15.71320312 20.87882812 14.53515625 20.81640625 C13.04425695 20.73201572 11.55337225 20.64736698 10.0625 20.5625 C9.30775391 20.52318359 8.55300781 20.48386719 7.77539062 20.44335938 C2.11328125 20.11328125 2.11328125 20.11328125 1 19 C0.92820036 17.48071962 0.91607993 15.95832518 0.9375 14.4375 C0.94652344 13.61121094 0.95554688 12.78492188 0.96484375 11.93359375 C0.97644531 11.29550781 0.98804688 10.65742187 1 10 C0.01 10 -0.98 10 -2 10 C-2.33 7.69 -2.66 5.38 -3 3 C-2.34 3 -1.68 3 -1 3 C-0.67 2.01 -0.34 1.02 0 0 Z " fill="#09495B" transform="translate(37,30)"/>
<path d="M0 0 C0.5775 0.309375 1.155 0.61875 1.75 0.9375 C3.84294184 1.92583364 5.74535275 2.5168613 8 3 C7.484375 3.5775 6.96875 4.155 6.4375 4.75 C4.76002659 6.85003037 4.76002659 6.85003037 5.25 9.0625 C5.4975 9.701875 5.745 10.34125 6 11 C6.33 11.99 6.66 12.98 7 14 C6.34 14.66 5.68 15.32 5 16 C5.78375 15.79375 6.5675 15.5875 7.375 15.375 C8.674375 15.189375 8.674375 15.189375 10 15 C10.66 15.66 11.32 16.32 12 17 C12.99 16.34 13.98 15.68 15 15 C15.33 15.66 15.66 16.32 16 17 C17.65 17 19.3 17 21 17 C20.75 20.375 20.75 20.375 20 24 C17.9375 25.4375 17.9375 25.4375 16 26 C16.185625 27.27875 16.37125 28.5575 16.5625 29.875 C17.125 33.75 17.125 33.75 16 36 C14.72125 36.061875 13.4425 36.12375 12.125 36.1875 C11.04605469 36.23970703 11.04605469 36.23970703 9.9453125 36.29296875 C9.30335937 36.19628906 8.66140625 36.09960938 8 36 C6 33 6 33 6.3125 30.375 C7 28 7 28 8 27 C7.360625 26.71125 6.72125 26.4225 6.0625 26.125 C4 25 4 25 3 23 C2.960008 21.00039988 2.95653201 18.99952758 3 17 C-0.04913228 15.98888907 -0.04913228 15.98888907 -3 17 C-6.26008643 13.83047153 -9.22237877 10.60062011 -12 7 C-8.73045798 7.56371414 -7.17424117 8.49962266 -5 11 C-4.34 9.68 -3.68 8.36 -3 7 C-2.01 7 -1.02 7 0 7 C-0.33 6.34 -0.66 5.68 -1 5 C-0.72057545 3.32345271 -0.39171753 1.65391846 0 0 Z " fill="#165264" transform="translate(36,55)"/>
<path d="M0 0 C3 2 3 2 6 4 C5.34 4.99 4.68 5.98 4 7 C1.6171875 7.29296875 1.6171875 7.29296875 -1.125 7.1875 C-2.03507812 7.16042969 -2.94515625 7.13335938 -3.8828125 7.10546875 C-4.58148438 7.07066406 -5.28015625 7.03585938 -6 7 C-6 7.99 -6 8.98 -6 10 C-7.4609375 12.15625 -7.4609375 12.15625 -9.375 14.5 C-13.09621569 19.09409345 -15.14036859 22.09003408 -16 28 C-16.34579356 29.7933015 -16.70043157 31.58491343 -17.0625 33.375 C-17.32740234 34.68597656 -17.32740234 34.68597656 -17.59765625 36.0234375 C-17.73042969 36.67570312 -17.86320312 37.32796875 -18 38 C-18.33 37.34 -18.66 36.68 -19 36 C-20.27875 36.020625 -21.5575 36.04125 -22.875 36.0625 C-26.75 36.125 -26.75 36.125 -29 35 C-29.4314822 28.9592492 -28.93910913 23.87525543 -25 19 C-22.859375 18.27734375 -22.859375 18.27734375 -21 18 C-20.938125 17.401875 -20.87625 16.80375 -20.8125 16.1875 C-19.64290474 13.03858968 -17.97545183 12.45466534 -15 11 C-13.01548229 10.28856912 -11.01797888 9.61008664 -9 9 C-9.2475 8.2575 -9.495 7.515 -9.75 6.75 C-10 4 -10 4 -8.4375 1.6875 C-5.35852418 -0.44409864 -3.67673806 -0.46937082 0 0 Z " fill="#00374B" transform="translate(50,12)"/>
<path d="M0 0 C3.5578125 -0.12375 3.5578125 -0.12375 7.1875 -0.25 C7.92508545 -0.28641602 8.6626709 -0.32283203 9.42260742 -0.36035156 C13.02641563 -0.42069892 14.87966133 -0.07776224 17.92578125 1.890625 C21.03113801 5.04861493 21.20093851 6.97334504 21.3125 11.3125 C21.26893452 15.01072525 21.1350541 16.74547496 19.375 20.0625 C13.15677961 25.13525874 8.38731017 24 0 24 C0 16.08 0 8.16 0 0 Z M6 5 C6 9.62 6 14.24 6 19 C11.98538237 17.68702878 11.98538237 17.68702878 14 14 C14.32855599 10.84586249 14.53501881 8.84476654 12.8125 6.125 C10.6475092 4.56053095 10.6475092 4.56053095 6 5 Z " fill="#000000" transform="translate(220,27)"/>
<path d="M0 0 C1.26328125 0.03609375 2.5265625 0.0721875 3.828125 0.109375 C5.27445313 0.17898437 5.27445313 0.17898437 6.75 0.25 C6.83703823 3.68734063 6.89040272 7.12439837 6.9375 10.5625 C6.96263672 11.53896484 6.98777344 12.51542969 7.01367188 13.52148438 C7.02333984 14.45927734 7.03300781 15.39707031 7.04296875 16.36328125 C7.0586792 17.22735596 7.07438965 18.09143066 7.09057617 18.98168945 C6.67385564 21.75713778 5.96724623 22.58017393 3.75 24.25 C0.92283905 25.19238698 -0.88176123 25.38465647 -3.8125 25.375 C-4.99005859 25.37886719 -4.99005859 25.37886719 -6.19140625 25.3828125 C-8.25 25.25 -8.25 25.25 -10.25 24.25 C-9.92 22.6 -9.59 20.95 -9.25 19.25 C-6.28 19.25 -3.31 19.25 -0.25 19.25 C-1.41593462 17.8758337 -1.41593462 17.8758337 -4.625 17.875 C-9.16004184 17.09309623 -9.16004184 17.09309623 -11.25 14.25 C-11.68359375 11.91015625 -11.68359375 11.91015625 -11.6875 9.3125 C-11.70683594 8.45785156 -11.72617188 7.60320313 -11.74609375 6.72265625 C-10.41917895 0.10897856 -5.97028388 -0.22112163 0 0 Z M-3.25 5.25 C-3.91 6.57 -4.57 7.89 -5.25 9.25 C-4.26 10.735 -4.26 10.735 -3.25 12.25 C-2.26 12.25 -1.27 12.25 -0.25 12.25 C0.75217064 8.66672247 0.75217064 8.66672247 -0.25 5.25 C-1.24 5.25 -2.23 5.25 -3.25 5.25 Z " fill="#000000" transform="translate(178.25,32.75)"/>
<path d="M0 0 C0.99 0.66 1.98 1.32 3 2 C2.34 2 1.68 2 1 2 C1 2.66 1 3.32 1 4 C2.32 4.33 3.64 4.66 5 5 C5 4.34 5 3.68 5 3 C6.32 3.33 7.64 3.66 9 4 C9 4.66 9 5.32 9 6 C10.65 5.34 12.3 4.68 14 4 C16 6 16 6 16.125 9.125 C16.08375 10.07375 16.0425 11.0225 16 12 C16.804375 12.309375 17.60875 12.61875 18.4375 12.9375 C21 14 21 14 22 15 C22.04092937 17.33297433 22.04241723 19.66705225 22 22 C19.63554179 23.48873294 18.26095932 24.00636486 15.4375 23.9375 C13 23 13 23 11.5625 20.4375 C11.046875 19.633125 10.53125 18.82875 10 18 C8.00045254 17.95745644 5.99958364 17.95919217 4 18 C3.401875 17.29875 2.80375 16.5975 2.1875 15.875 C1.465625 15.25625 0.74375 14.6375 0 14 C-2.44414941 14.2413433 -4.62636932 14.81291171 -6.9765625 15.51953125 C-9 16 -9 16 -11 15 C-10.45730469 14.41992188 -9.91460937 13.83984375 -9.35546875 13.2421875 C-5.50026363 9.03272029 -2.17520126 5.30205308 0 0 Z " fill="#084356" transform="translate(61,57)"/>
<path d="M0 0 C0.99 0 1.98 0 3 0 C3.33 2.97 3.66 5.94 4 9 C6.64 9.33 9.28 9.66 12 10 C12 10.99 12 11.98 12 13 C12.66 13 13.32 13 14 13 C14 12.01 14 11.02 14 10 C16.64 10 19.28 10 22 10 C20.02 10.99 20.02 10.99 18 12 C18 13.32 18 14.64 18 16 C15.36 16 12.72 16 10 16 C10 16.66 10 17.32 10 18 C11.98 18 13.96 18 16 18 C16 18.66 16 19.32 16 20 C14.35 20.33 12.7 20.66 11 21 C15.54805635 21.17835515 18.8794254 20.99785435 23 19 C22.39549722 22.0493807 21.44956828 24.11483636 19.625 26.625 C19.20476563 27.21539062 18.78453125 27.80578125 18.3515625 28.4140625 C17 30 17 30 14 32 C13.01 32 12.02 32 11 32 C11 31.34 11 30.68 11 30 C10.34 30.66 9.68 31.32 9 32 C6.875 31.625 6.875 31.625 5 31 C5.33 30.34 5.66 29.68 6 29 C6.66 29 7.32 29 8 29 C7.2265625 28.13375 7.2265625 28.13375 6.4375 27.25 C5 25 5 25 5.3125 22.9375 C5.539375 22.298125 5.76625 21.65875 6 21 C6 20.01 6 19.02 6 18 C5.360625 17.7525 4.72125 17.505 4.0625 17.25 C2 16 2 16 1.375 13.9375 C1.25125 13.298125 1.1275 12.65875 1 12 C0.34 11.67 -0.32 11.34 -1 11 C-1.0270043 9.54176788 -1.04639787 8.08339325 -1.0625 6.625 C-1.07410156 5.81289063 -1.08570313 5.00078125 -1.09765625 4.1640625 C-1 2 -1 2 0 0 Z " fill="#00384C" transform="translate(35,40)"/>
<path d="M0 0 C1.07765625 0.01804687 2.1553125 0.03609375 3.265625 0.0546875 C4.49539062 0.08949219 4.49539062 0.08949219 5.75 0.125 C5.42 2.105 5.09 4.085 4.75 6.125 C3.1103125 6.0321875 3.1103125 6.0321875 1.4375 5.9375 C-2.0907519 5.8349594 -2.0907519 5.8349594 -4.1875 7.25 C-5.73138276 9.97449899 -5.5767107 12.05391945 -5.25 15.125 C-2.24382731 18.13117269 0.57381598 17.72085316 4.75 18.125 C5.08 19.775 5.41 21.425 5.75 23.125 C2.29371521 24.85314239 -1.46396205 24.48133298 -5.25 24.125 C-10.57667179 22.18802844 -10.57667179 22.18802844 -12.390625 19.32421875 C-14.30384352 14.42811864 -13.99751209 8.91902901 -12 4.125 C-8.47276143 0.09387021 -5.21259048 -0.11331718 0 0 Z " fill="#000000" transform="translate(114.25,26.875)"/>
<path d="M0 0 C0.99 0 1.98 0 3 0 C3 0.66 3 1.32 3 2 C3.680625 1.71125 4.36125 1.4225 5.0625 1.125 C8.5187622 0.97792501 9.04869321 1.48081261 11.625 3.625 C16.40645669 8.12641476 19.74420719 13.4369864 20.12109375 20.16015625 C20.12452767 22.10718626 20.06709919 24.0541235 20 26 C18.04081032 25.94008594 16.08248471 25.85132862 14.125 25.75 C13.03445312 25.70359375 11.94390625 25.6571875 10.8203125 25.609375 C8 25 8 25 6.5546875 23.140625 C6 21 6 21 7 18 C7 16.80375 7 15.6075 7 14.375 C7 11 7 11 8 10 C7.01 10.33 6.02 10.66 5 11 C4.15504811 9.92570402 3.32445142 8.84010798 2.5 7.75 C2.0359375 7.14671875 1.571875 6.5434375 1.09375 5.921875 C0 4 0 4 0 0 Z " fill="#00374B" transform="translate(55,22)"/>
<path d="M0 0 C0.66 0.99 1.32 1.98 2 3 C1.1028125 3.2784375 1.1028125 3.2784375 0.1875 3.5625 C-2.99449662 5.65352635 -3.96337239 8.47410215 -5 12 C-5.48597997 14.67756272 -5.76170064 17.28338728 -6 20 C-5.34 20.33 -4.68 20.66 -4 21 C-4.66 21.33 -5.32 21.66 -6 22 C-6.65555119 24.52733235 -6.65555119 24.52733235 -7 27 C-8.98 27 -10.96 27 -13 27 C-13.66 25.68 -14.32 24.36 -15 23 C-15.99 23.66 -16.98 24.32 -18 25 C-20.5625 25.25 -20.5625 25.25 -23 25 C-25 23 -25 23 -25.265625 21.125 C-25.26046875 20.42375 -25.2553125 19.7225 -25.25 19 C-25.25515625 18.29875 -25.2603125 17.5975 -25.265625 16.875 C-25 15 -25 15 -23 13 C-20.5 12.75 -20.5 12.75 -18 13 C-17.34 13.66 -16.68 14.32 -16 15 C-15.649375 14.34 -15.29875 13.68 -14.9375 13 C-13 11 -13 11 -9.3125 10.75 C-8.219375 10.8325 -7.12625 10.915 -6 11 C-6.33 8.69 -6.66 6.38 -7 4 C-6.01 4 -5.02 4 -4 4 C-1.81222534 2.0624994 -1.81222534 2.0624994 0 0 Z " fill="#20596A" transform="translate(27,27)"/>
<path d="M0 0 C1.32 0 2.64 0 4 0 C4 0.99 4 1.98 4 3 C4.33 2.01 4.66 1.02 5 0 C37.25 0 37.25 0 42 1 C42.495 2.485 42.495 2.485 43 4 C42.34 4.99 41.68 5.98 41 7 C39.16500854 7.36076355 39.16500854 7.36076355 36.91748047 7.34057617 C36.07675995 7.34034958 35.23603943 7.34012299 34.36984253 7.33988953 C33.46146637 7.32440567 32.55309021 7.30892181 31.6171875 7.29296875 C30.68778351 7.28872391 29.75837952 7.28447906 28.80081177 7.28010559 C25.82524944 7.26328012 22.85035844 7.22562103 19.875 7.1875 C17.86068685 7.17245816 15.84636311 7.15876888 13.83203125 7.14648438 C8.88776121 7.11336394 3.94399451 7.06155529 -1 7 C-1 3 -1 3 0 0 Z M15 2 C15 2.99 15 3.98 15 5 C15.66 5 16.32 5 17 5 C17.33 4.01 17.66 3.02 18 2 C17.01 2 16.02 2 15 2 Z " fill="#000000" transform="translate(204,59)"/>
<path d="M0 0 C2.625 1.4375 2.625 1.4375 4 4 C4.65394231 8.19292425 4.67938902 11.70592568 2.6875 15.5 C0.15293952 17.75294265 -2.04119164 18.00457685 -5.375 18.375 C-9 18 -9 18 -11.9375 16.0625 C-14.70329942 11.95570692 -14.92531621 8.81523776 -14 4 C-11.09922324 -1.40599305 -5.44853583 -0.85981878 0 0 Z M-6 5 C-7.19838209 7.32854463 -7.19838209 7.32854463 -8 10 C-7.01 11.485 -7.01 11.485 -6 13 C-5.01 12.67 -4.02 12.34 -3 12 C-2.07606836 10.13803054 -2.07606836 10.13803054 -2 8 C-2.66 7.01 -3.32 6.02 -4 5 C-4.66 5 -5.32 5 -6 5 Z " fill="#000000" transform="translate(134,33)"/>
<path d="M0 0 C2.12890625 0.4140625 2.12890625 0.4140625 4.69140625 1.9765625 C6.61339465 5.23558631 6.41468326 7.69896136 6.12890625 11.4140625 C4.80890625 11.7440625 3.48890625 12.0740625 2.12890625 12.4140625 C3.11890625 12.4140625 4.10890625 12.4140625 5.12890625 12.4140625 C5.12890625 14.0640625 5.12890625 15.7140625 5.12890625 17.4140625 C1.9398336 19.00859883 -1.40054057 18.79967952 -4.87109375 18.4140625 C-9.44053819 16.27517361 -9.44053819 16.27517361 -10.87109375 13.4140625 C-11.23532648 8.97042315 -11.36393847 6.442608 -9.43359375 2.4140625 C-6.16857322 -0.1342462 -4.05958762 -0.25414222 0 0 Z M-2.87109375 4.4140625 C-3.20109375 5.4040625 -3.53109375 6.3940625 -3.87109375 7.4140625 C-2.88109375 7.4140625 -1.89109375 7.4140625 -0.87109375 7.4140625 C-1.20109375 6.4240625 -1.53109375 5.4340625 -1.87109375 4.4140625 C-2.20109375 4.4140625 -2.53109375 4.4140625 -2.87109375 4.4140625 Z " fill="#000000" transform="translate(252.87109375,32.5859375)"/>
<path d="M0 0 C2.12890625 0.4140625 2.12890625 0.4140625 4.69140625 1.9765625 C6.61339465 5.23558631 6.41468326 7.69896136 6.12890625 11.4140625 C4.80890625 11.7440625 3.48890625 12.0740625 2.12890625 12.4140625 C3.11890625 12.4140625 4.10890625 12.4140625 5.12890625 12.4140625 C5.12890625 14.0640625 5.12890625 15.7140625 5.12890625 17.4140625 C1.9398336 19.00859883 -1.40054057 18.79967952 -4.87109375 18.4140625 C-9.44053819 16.27517361 -9.44053819 16.27517361 -10.87109375 13.4140625 C-11.23532648 8.97042315 -11.36393847 6.442608 -9.43359375 2.4140625 C-6.16857322 -0.1342462 -4.05958762 -0.25414222 0 0 Z M-2.87109375 4.4140625 C-3.20109375 5.4040625 -3.53109375 6.3940625 -3.87109375 7.4140625 C-2.88109375 7.4140625 -1.89109375 7.4140625 -0.87109375 7.4140625 C-1.20109375 6.4240625 -1.53109375 5.4340625 -1.87109375 4.4140625 C-2.20109375 4.4140625 -2.53109375 4.4140625 -2.87109375 4.4140625 Z " fill="#000000" transform="translate(159.87109375,32.5859375)"/>
<path d="M0 0 C4.42871657 2.21435828 6.54300595 4.72301036 9 9 C9 9.66 9 10.32 9 11 C7.35 11.33 5.7 11.66 4 12 C4.969375 12.2475 5.93875 12.495 6.9375 12.75 C7.948125 13.1625 8.95875 13.575 10 14 C10.33 15.32 10.66 16.64 11 18 C4.07 18 -2.86 18 -10 18 C-10.66 16.35 -11.32 14.7 -12 13 C-10.98828125 10.6484375 -10.98828125 10.6484375 -9.3125 8.375 C-8.77238281 7.61960937 -8.23226562 6.86421875 -7.67578125 6.0859375 C-6.1957926 4.24371387 -4.78693456 2.54572301 -3 1 C-2.34 1 -1.68 1 -1 1 C-1 3.64 -1 6.28 -1 9 C-1.66 9 -2.32 9 -3 9 C-3 9.66 -3 10.32 -3 11 C-0.03 11.495 -0.03 11.495 3 12 C3 11.34 3 10.68 3 10 C2.01 10 1.02 10 0 10 C0 6.7 0 3.4 0 0 Z " fill="#003549" transform="translate(48,21)"/>
<path d="M0 0 C2.5410844 0.30238374 3.75129114 0.75737204 5.59765625 2.55859375 C6.08105469 3.17863281 6.56445312 3.79867187 7.0625 4.4375 C9.01068086 6.91277489 10.30632886 8.20421924 13 10 C12.67 11.32 12.34 12.64 12 14 C5.25 15.125 5.25 15.125 3 14 C2.87625 14.78375 2.7525 15.5675 2.625 16.375 C2 19 2 19 0 21 C-3.125 20.625 -3.125 20.625 -6 20 C-8.18382353 14.66176471 -8.18382353 14.66176471 -7.375 11.75 C-6 10 -6 10 -3.9375 9.1875 C-3.298125 8.795625 -2.65875 8.40375 -2 8 C-1.25823993 4.47486472 -1.25823993 4.47486472 -1 1 C-0.67 0.67 -0.34 0.34 0 0 Z " fill="#054154" transform="translate(20,60)"/>
<path d="M0 0 C2.31 0 4.62 0 7 0 C7.66 1.65 8.32 3.3 9 5 C9.66 3.35 10.32 1.7 11 0 C13.64 0 16.28 0 19 0 C17.02 5.94 15.04 11.88 13 18 C10.69 18 8.38 18 6 18 C3.1248748 12.09622349 1.16194152 6.46712188 0 0 Z " fill="#000000" transform="translate(259,33)"/>
<path d="M0 0 C3.375 -0.125 3.375 -0.125 7 0 C7.66 0.66 8.32 1.32 9 2 C9.969375 1.814375 10.93875 1.62875 11.9375 1.4375 C15 1 15 1 16.875 2 C18.60658065 5.07836561 18.37650785 7.54867807 18 11 C15 13 15 13 12.4375 12.625 C11.2309375 12.315625 11.2309375 12.315625 10 12 C9.34 12 8.68 12 8 12 C7.01 13.485 7.01 13.485 6 15 C2.375 15.1875 2.375 15.1875 -1 15 C-1.33 15.66 -1.66 16.32 -2 17 C-1.53596352 14.14949017 -1.0715916 11.31818489 -0.4375 8.5 C0.06465665 5.63053345 0.0676121 2.90732036 0 0 Z " fill="#09475A" transform="translate(76,39)"/>
<path d="M0 0 C0.66 0.33 1.32 0.66 2 1 C2 1.66 2 2.32 2 3 C5.3 3 8.6 3 12 3 C12.66 4.32 13.32 5.64 14 7 C13.01 8.485 13.01 8.485 12 10 C7.125 9.125 7.125 9.125 6 8 C5.67 8.66 5.34 9.32 5 10 C-2.66666667 10 -10.33333333 10 -18 10 C-18 7.69 -18 5.38 -18 3 C-15.52076199 2.97314905 -13.0418116 2.95323453 -10.5625 2.9375 C-9.85544922 2.92912109 -9.14839844 2.92074219 -8.41992188 2.91210938 C-6.61306441 2.90346412 -4.80612397 2.94779989 -3 3 C-2.67 3.33 -2.34 3.66 -2 4 C-1.34 2.68 -0.68 1.36 0 0 Z M-11 5 C-11 5.99 -11 6.98 -11 8 C-10.34 8 -9.68 8 -9 8 C-8.67 7.01 -8.34 6.02 -8 5 C-8.99 5 -9.98 5 -11 5 Z " fill="#000000" transform="translate(149,56)"/>
<path d="M0 0 C0.79921875 0.01804687 1.5984375 0.03609375 2.421875 0.0546875 C3.02515625 0.07789062 3.6284375 0.10109375 4.25 0.125 C4.58 1.775 4.91 3.425 5.25 5.125 C3.27 6.115 3.27 6.115 1.25 7.125 C1.435625 8.40375 1.62125 9.6825 1.8125 11 C2.375 14.875 2.375 14.875 1.25 17.125 C-0.02875 17.186875 -1.3075 17.24875 -2.625 17.3125 C-3.70394531 17.36470703 -3.70394531 17.36470703 -4.8046875 17.41796875 C-5.44664063 17.32128906 -6.08859375 17.22460938 -6.75 17.125 C-8.75 14.125 -8.75 14.125 -8.4375 11.5 C-7.75 9.125 -7.75 9.125 -6.75 8.125 C-7.74 7.135 -8.73 6.145 -9.75 5.125 C-8.75 2.125 -8.75 2.125 -6.984375 0.9453125 C-4.49281777 0.03057995 -2.64383164 -0.07775975 0 0 Z " fill="#0B4658" transform="translate(50.75,73.875)"/>
<path d="M0 0 C8.25 0 16.5 0 25 0 C25.33 2.31 25.66 4.62 26 7 C18.41 7 10.82 7 3 7 C3 7.99 3 8.98 3 10 C2.01 10 1.02 10 0 10 C0 6.7 0 3.4 0 0 Z M4 2 C4 5 4 5 4 5 Z " fill="#000000" transform="translate(165,59)"/>
<path d="M0 0 C1.98 0 3.96 0 6 0 C6 8.25 6 16.5 6 25 C4.02 25 2.04 25 0 25 C0 16.75 0 8.5 0 0 Z " fill="#000000" transform="translate(141,26)"/>
<path d="M0 0 C1.9453125 -0.29296875 1.9453125 -0.29296875 4.125 -0.1875 C5.40375 -0.125625 6.6825 -0.06375 8 0 C9.35925589 2.71851177 9.06268395 4.99117026 9 8 C9 10.76223278 10.31425163 11.89281454 12 14 C9.69 13.67 7.38 13.34 5 13 C5 12.67 5 12.34 5 12 C2.69 12.33 0.38 12.66 -2 13 C-2.04125 14.093125 -2.0825 15.18625 -2.125 16.3125 C-3 20 -3 20 -5.9375 21.9375 C-9 23 -9 23 -11 23 C-11.33 21.35 -11.66 19.7 -12 18 C-10.515 18.99 -10.515 18.99 -9 20 C-8.01 19.67 -7.02 19.34 -6 19 C-5.31060191 16.67328146 -4.64533078 14.33932406 -4 12 C-3.443125 11.484375 -2.88625 10.96875 -2.3125 10.4375 C-1.879375 9.963125 -1.44625 9.48875 -1 9 C-1.29259485 6.99363529 -1.62633887 4.99285937 -2 3 C-1.34 2.01 -0.68 1.02 0 0 Z " fill="#185567" transform="translate(44,1)"/>
<path d="M0 0 C1.98 0 3.96 0 6 0 C6 1.32 6 2.64 6 4 C6.66 3.34 7.32 2.68 8 2 C10.8203125 1.8046875 10.8203125 1.8046875 14.125 1.875 C15.22070312 1.89304688 16.31640625 1.91109375 17.4453125 1.9296875 C18.28835937 1.95289063 19.13140625 1.97609375 20 2 C20 4.31 20 6.62 20 9 C13 9 6 9 -1 9 C-0.67 8.01 -0.34 7.02 0 6 C0.66 6 1.32 6 2 6 C1.01 5.34 0.02 4.68 -1 4 C-0.67 2.68 -0.34 1.36 0 0 Z " fill="#000000" transform="translate(93,57)"/>
<path d="M0 0 C0.99 0.66 1.98 1.32 3 2 C2.34 2 1.68 2 1 2 C1 2.66 1 3.32 1 4 C2.32 4.33 3.64 4.66 5 5 C5 4.34 5 3.68 5 3 C6.32 3.33 7.64 3.66 9 4 C9 4.66 9 5.32 9 6 C8.01 6.495 8.01 6.495 7 7 C4.29288161 10.01947821 4 10.72765783 4 15 C3.43539062 14.814375 2.87078125 14.62875 2.2890625 14.4375 C-0.37617567 13.92810294 -2.01820743 14.30253042 -4.625 15 C-8.78741866 16.10629067 -8.78741866 16.10629067 -11 15 C-10.45730469 14.41992188 -9.91460937 13.83984375 -9.35546875 13.2421875 C-5.50026363 9.03272029 -2.17520126 5.30205308 0 0 Z " fill="#013A4E" transform="translate(61,57)"/>
<path d="M0 0 C4.95 0 9.9 0 15 0 C15 2.64 15 5.28 15 8 C10.05 8 5.1 8 0 8 C0 5.36 0 2.72 0 0 Z " fill="#003449" transform="translate(40,40)"/>
<path d="M0 0 C0.66 0.33 1.32 0.66 2 1 C2 1.66 2 2.32 2 3 C3.39025391 2.98259766 3.39025391 2.98259766 4.80859375 2.96484375 C6.00613281 2.95582031 7.20367187 2.94679687 8.4375 2.9375 C9.63246094 2.92589844 10.82742188 2.91429687 12.05859375 2.90234375 C15 3 15 3 16 4 C16 5.98 16 7.96 16 10 C10.39 10 4.78 10 -1 10 C-1.09765625 3.06640625 -1.09765625 3.06640625 -1 1 C-0.67 0.67 -0.34 0.34 0 0 Z " fill="#000000" transform="translate(269,56)"/>
<path d="M0 0 C0.99 0 1.98 0 3 0 C3 3.3 3 6.6 3 10 C-1 10 -5 10 -9 10 C-9.845625 10.020625 -10.69125 10.04125 -11.5625 10.0625 C-14 10 -14 10 -15 9 C-15.125 6.5 -15.125 6.5 -15 4 C-14 3 -14 3 -11.5625 2.9375 C-10.2940625 2.9684375 -10.2940625 2.9684375 -9 3 C-8.34 3 -7.68 3 -7 3 C-5 3 -3 3 -1 3 C-0.67 2.01 -0.34 1.02 0 0 Z M-12 5 C-11.67 5.99 -11.34 6.98 -11 8 C-11 7.01 -11 6.02 -11 5 C-11.33 5 -11.66 5 -12 5 Z " fill="#000000" transform="translate(264,56)"/>
<path d="M0 0 C0.33 1.32 0.66 2.64 1 4 C3.31 4.33 5.62 4.66 8 5 C8 5.66 8 6.32 8 7 C6.35 7.33 4.7 7.66 3 8 C3 7.34 3 6.68 3 6 C2.01 6 1.02 6 0 6 C0.350625 6.763125 0.70125 7.52625 1.0625 8.3125 C2 11 2 11 1 14 C-1 11 -1 11 -1 8 C-3.475 7.01 -3.475 7.01 -6 6 C-6.33 8.97 -6.66 11.94 -7 15 C-6.01 15 -5.02 15 -4 15 C-4 15.66 -4 16.32 -4 17 C-5.98 16.67 -7.96 16.34 -10 16 C-10 15.34 -10 14.68 -10 14 C-9.34 14 -8.68 14 -8 14 C-8 11.36 -8 8.72 -8 6 C-10.90802461 8.21928194 -12.95312762 9.92969143 -15 13 C-15.66 12.67 -16.32 12.34 -17 12 C-16.566875 11.52949219 -16.13375 11.05898438 -15.6875 10.57421875 C-15.130625 9.95160156 -14.57375 9.32898437 -14 8.6875 C-13.1646875 7.76517578 -13.1646875 7.76517578 -12.3125 6.82421875 C-10.70798502 4.96868665 -10.70798502 4.96868665 -11 2 C-8.525 2.99 -8.525 2.99 -6 4 C-6 3.34 -6 2.68 -6 2 C-4.35 2 -2.7 2 -1 2 C-0.67 1.34 -0.34 0.68 0 0 Z " fill="#266171" transform="translate(55,16)"/>
<path d="M0 0 C2.9375 0.375 2.9375 0.375 4.9375 2.375 C5.1025 3.055625 5.2675 3.73625 5.4375 4.4375 C5.6025 5.076875 5.7675 5.71625 5.9375 6.375 C6.5975 6.705 7.2575 7.035 7.9375 7.375 C5.71961386 9.27969761 3.52247983 10.99670163 0.9375 12.375 C-1.875 12.0625 -1.875 12.0625 -4.0625 10.375 C-5.5625 7.5 -5.5625 7.5 -6.0625 4.375 C-4.61058514 0.92670221 -3.72304593 0.45588318 0 0 Z " fill="#104B5E" transform="translate(18.0625,11.625)"/>
<path d="M0 0 C2 2 2 2 2.3125 5.5 C2.1578125 7.2325 2.1578125 7.2325 2 9 C-1 11 -1 11 -3.5 10.75 C-6 10 -6 10 -9 8 C-9.1875 4.875 -9.1875 4.875 -9 2 C-8.34 2 -7.68 2 -7 2 C-7 1.34 -7 0.68 -7 0 C-4.29393021 -1.35303489 -2.8671629 -0.7884698 0 0 Z " fill="#044154" transform="translate(92,41)"/>
<path d="M0 0 C4.62 0 9.24 0 14 0 C14 2.31 14 4.62 14 7 C10.37 7 6.74 7 3 7 C3 7.99 3 8.98 3 10 C2.01 10 1.02 10 0 10 C0 6.7 0 3.4 0 0 Z " fill="#000000" transform="translate(116,59)"/>
<path d="M0 0 C1.21744727 3.65234182 0.64202228 4.62953322 -1 8 C-1.66 8.66 -2.32 9.32 -3 10 C-6.125 9.625 -6.125 9.625 -9 9 C-11.19130435 3.64347826 -11.19130435 3.64347826 -10.3125 0.6875 C-7.25875887 -3.2387386 -3.96717544 -1.72485889 0 0 Z " fill="#0C4659" transform="translate(23,71)"/>
<path d="M0 0 C5.875 2.875 5.875 2.875 7 4 C7.04092937 6.33297433 7.04241723 8.66705225 7 11 C4.5595659 12.53656962 3.29255898 13.02089707 0.375 12.8125 C-2 12 -2 12 -4 9 C-3.625 6.3125 -3.625 6.3125 -3 4 C-2.01 4 -1.02 4 0 4 C-0.66 3.34 -1.32 2.68 -2 2 C-1.34 1.34 -0.68 0.68 0 0 Z " fill="#144F61" transform="translate(76,68)"/>
<path d="M0 0 C2 2 2 2 2.3125 5.5 C2.1578125 7.2325 2.1578125 7.2325 2 9 C-1 11 -1 11 -3.5625 10.8125 C-6 10 -6 10 -8 7 C-8.125 3.8125 -8.125 3.8125 -8 1 C-5.23749964 -0.38125018 -3.05268901 -0.19079306 0 0 Z " fill="#0A4659" transform="translate(81,12)"/>
<path d="M0 0 C0.33 1.65 0.66 3.3 1 5 C-2.21182149 6.90608098 -4.53882603 7.22266247 -8.25 7.125 C-9.14203125 7.10695313 -10.0340625 7.08890625 -10.953125 7.0703125 C-11.96632813 7.03550781 -11.96632813 7.03550781 -13 7 C-13.33 5.68 -13.66 4.36 -14 3 C-9.43672206 -0.53286034 -5.50366792 -0.32374517 0 0 Z " fill="#023A4E" transform="translate(55,74)"/>
<path d="M0 0 C1 2 1 2 0.4375 4 C0.2209375 4.99 0.2209375 4.99 0 6 C1.75298462 8.18273845 1.75298462 8.18273845 3.8828125 8.16015625 C4.62273438 8.12792969 5.36265625 8.09570312 6.125 8.0625 C10.53107576 7.95538309 14.64118955 8.36599121 19 9 C19 9.33 19 9.66 19 10 C13.72 10 8.44 10 3 10 C3 12.97 3 15.94 3 19 C6.3 19 9.6 19 13 19 C13 19.33 13 19.66 13 20 C11.18757948 20.02687279 9.37504767 20.04633715 7.5625 20.0625 C6.55316406 20.07410156 5.54382813 20.08570312 4.50390625 20.09765625 C2 20 2 20 1 19 C0.92820036 17.48071962 0.91607993 15.95832518 0.9375 14.4375 C0.94652344 13.61121094 0.95554688 12.78492188 0.96484375 11.93359375 C0.97644531 11.29550781 0.98804688 10.65742187 1 10 C0.01 10 -0.98 10 -2 10 C-2.33 7.69 -2.66 5.38 -3 3 C-2.34 3 -1.68 3 -1 3 C-0.67 2.01 -0.34 1.02 0 0 Z " fill="#57919C" transform="translate(37,30)"/>
<path d="M0 0 C0.33 0.66 0.66 1.32 1 2 C1.94875 1.814375 2.8975 1.62875 3.875 1.4375 C7 1 7 1 9 2 C8.125 8.875 8.125 8.875 7 10 C4.5625 10.1875 4.5625 10.1875 2 10 C0 8 0 8 -0.1953125 6.0546875 C-0.13020833 4.03645833 -0.06510417 2.01822917 0 0 Z " fill="#0A4558" transform="translate(2,42)"/>
<path d="M0 0 C0.36601307 7.4422658 0.36601307 7.4422658 -1.3125 10 C-3 11 -3 11 -6 11 C-6 11.66 -6 12.32 -6 13 C-7.65 13.33 -9.3 13.66 -11 14 C-9.93545026 9.26866783 -5.69343351 0 0 0 Z " fill="#00364B" transform="translate(47,22)"/>
<path d="M0 0 C0.66 0.66 1.32 1.32 2 2 C2.99 1.34 3.98 0.68 5 0 C5.33 0.66 5.66 1.32 6 2 C7.65 2 9.3 2 11 2 C10.67 3.65 10.34 5.3 10 7 C9.67 6.01 9.34 5.02 9 4 C7.58249437 4.11509661 6.16598831 4.24253658 4.75 4.375 C3.96109375 4.44460937 3.1721875 4.51421875 2.359375 4.5859375 C-0.085877 5.01507113 -1.84836903 5.78600638 -4 7 C-4 7.99 -4 8.98 -4 10 C-4.66 10 -5.32 10 -6 10 C-7.35439668 7.29120665 -7.06501451 4.99066732 -7 2 C-4.35261084 0.5393715 -3.10551666 0 0 0 Z " fill="#246776" transform="translate(46,70)"/>
<path d="M0 0 C0.66 0 1.32 0 2 0 C2.66 0.66 3.32 1.32 4 2 C5.98 1.34 7.96 0.68 10 0 C8.625 1.5 8.625 1.5 7 3 C6.34 3 5.68 3 5 3 C5.33 6.63 5.66 10.26 6 14 C3.43609639 12.71804819 3.29110502 11.65949394 2.1875 9.0625 C0.73368611 5.9957756 0.33003477 5.18001896 -2.75 3.5 C-3.86375 3.2525 -3.86375 3.2525 -5 3 C-4.67 2.34 -4.34 1.68 -4 1 C-2.02 1.495 -2.02 1.495 0 2 C0 1.34 0 0.68 0 0 Z " fill="#3D7C8A" transform="translate(57,30)"/>
<path d="M0 0 C2.64 0 5.28 0 8 0 C8 0.99 8 1.98 8 3 C8.66 3 9.32 3 10 3 C10 2.01 10 1.02 10 0 C12.64 0 15.28 0 18 0 C16.02 0.99 16.02 0.99 14 2 C14 3.32 14 4.64 14 6 C11.36 6 8.72 6 6 6 C6 4.68 6 3.36 6 2 C4.02 2 2.04 2 0 2 C0 1.34 0 0.68 0 0 Z " fill="#003549" transform="translate(39,50)"/>
<path d="M0 0 C0.86625 0.4640625 0.86625 0.4640625 1.75 0.9375 C3.84294184 1.92583364 5.74535275 2.5168613 8 3 C7.484375 3.53625 6.96875 4.0725 6.4375 4.625 C4.67394455 7.00496499 4.67394455 7.00496499 5.3125 10.25 C5.539375 11.1575 5.76625 12.065 6 13 C5.01 12.34 4.02 11.68 3 11 C3 10.01 3 9.02 3 8 C2.34 8 1.68 8 1 8 C-1 5 -1 5 -0.625 2.3125 C-0.41875 1.549375 -0.2125 0.78625 0 0 Z " fill="#3D7A87" transform="translate(36,55)"/>
<path d="M0 0 C1.984375 1.17578125 1.984375 1.17578125 4 3 C4.390625 5.48046875 4.390625 5.48046875 4.25 8.1875 C4.21390625 9.08855469 4.1778125 9.98960938 4.140625 10.91796875 C4.07101563 11.94857422 4.07101563 11.94857422 4 13 C4.99 13 5.98 13 7 13 C7 13.66 7 14.32 7 15 C4.03 14.505 4.03 14.505 1 14 C1 13.34 1 12.68 1 12 C1.66 12 2.32 12 3 12 C3 9.36 3 6.72 3 4 C0.09197539 6.21928194 -1.95312762 7.92969143 -4 11 C-4.66 10.67 -5.32 10.34 -6 10 C-5.566875 9.52949219 -5.13375 9.05898438 -4.6875 8.57421875 C-4.130625 7.95160156 -3.57375 7.32898438 -3 6.6875 C-2.443125 6.07261719 -1.88625 5.45773438 -1.3125 4.82421875 C0.29201498 2.96868665 0.29201498 2.96868665 0 0 Z " fill="#327684" transform="translate(44,18)"/>
<path d="M0 0 C1.2065625 0.0309375 1.2065625 0.0309375 2.4375 0.0625 C3.0975 1.3825 3.7575 2.7025 4.4375 4.0625 C3.4475 5.5475 3.4475 5.5475 2.4375 7.0625 C-0.125 7.3125 -0.125 7.3125 -2.5625 7.0625 C-3.5625 6.0625 -3.5625 6.0625 -3.6875 3.5625 C-3.51717518 0.15600356 -3.41884482 0.08338646 0 0 Z M-0.5625 2.0625 C-0.2325 3.0525 0.0975 4.0425 0.4375 5.0625 C0.4375 4.0725 0.4375 3.0825 0.4375 2.0625 C0.1075 2.0625 -0.2225 2.0625 -0.5625 2.0625 Z " fill="#000000" transform="translate(196.5625,58.9375)"/>
<path d="M0 0 C3.14839906 -0.34982212 4.62023779 -0.24633224 7.3125 1.5 C9.76157308 5.12825641 9.28810652 7.67840225 9 12 C8.67 11.34 8.34 10.68 8 10 C7.34 9.67 6.68 9.34 6 9 C6.33 7.35 6.66 5.7 7 4 C4.36 4 1.72 4 -1 4 C-0.67 2.68 -0.34 1.36 0 0 Z " fill="#296373" transform="translate(4,40)"/>
<path d="M0 0 C-0.33493693 5.3589909 -3.57127181 9.10743856 -7 13 C-7.99 13.495 -7.99 13.495 -9 14 C-7.95728026 11.7541421 -6.91350633 9.89021957 -5.375 7.9375 C-3.7106265 5.9882168 -3.7106265 5.9882168 -4 3 C-4.99 2.34 -5.98 1.68 -7 1 C-4.50935112 0.31292445 -2.62113708 0 0 0 Z " fill="#59939E" transform="translate(61,56)"/>
<path d="M0 0 C1.32 0 2.64 0 4 0 C4 0.66 4 1.32 4 2 C4.66 2 5.32 2 6 2 C6 2.66 6 3.32 6 4 C5.01 4.33 4.02 4.66 3 5 C3 5.99 3 6.98 3 8 C2.34 8 1.68 8 1 8 C-0.35439668 5.29120665 -0.06501451 2.99066732 0 0 Z " fill="#35707E" transform="translate(39,72)"/>
<path d="M0 0 C0.66 0.66 1.32 1.32 2 2 C3.98821313 2.39764263 5.98944339 2.73775349 8 3 C8 3.33 8 3.66 8 4 C6.35 4 4.7 4 3 4 C3.165 4.9075 3.33 5.815 3.5 6.75 C4 10 4 10 4 14 C3.34 14 2.68 14 2 14 C1.93941406 13.40832031 1.87882812 12.81664062 1.81640625 12.20703125 C1.37987629 8.09021792 0.91328654 4.04455467 0 0 Z " fill="#3B8390" transform="translate(73,35)"/>
<path d="M0 0 C1 2 1 2 0.4375 3.9375 C0.2209375 4.9584375 0.2209375 4.9584375 0 6 C0.99 7.485 0.99 7.485 2 9 C2.1953125 11.48046875 2.1953125 11.48046875 2.125 14.1875 C2.10695313 15.08855469 2.08890625 15.98960938 2.0703125 16.91796875 C2.03550781 17.94857422 2.03550781 17.94857422 2 19 C1.67 19 1.34 19 1 19 C1 16.03 1 13.06 1 10 C0.01 10 -0.98 10 -2 10 C-2.33 7.69 -2.66 5.38 -3 3 C-2.34 3 -1.68 3 -1 3 C-0.67 2.01 -0.34 1.02 0 0 Z " fill="#437E8B" transform="translate(37,30)"/>
<path d="M0 0 C2.97 0.495 2.97 0.495 6 1 C6 1.66 6 2.32 6 3 C5.01 3 4.02 3 3 3 C3 3.66 3 4.32 3 5 C1.35 5.33 -0.3 5.66 -2 6 C-1.34 4.02 -0.68 2.04 0 0 Z " fill="#115365" transform="translate(38,30)"/>
<path d="M0 0 C1.65 0.33 3.3 0.66 5 1 C5.33 1.99 5.66 2.98 6 4 C5.34 4 4.68 4 4 4 C4 3.34 4 2.68 4 2 C2.02 2.99 2.02 2.99 0 4 C0 4.99 0 5.98 0 7 C-1.32 6.34 -2.64 5.68 -4 5 C-3.34 4.01 -2.68 3.02 -2 2 C-1.34 2 -0.68 2 0 2 C0 1.34 0 0.68 0 0 Z " fill="#00364B" transform="translate(32,60)"/>
<path d="M0 0 C2.64 0 5.28 0 8 0 C8 0.99 8 1.98 8 3 C8.99 2.67 9.98 2.34 11 2 C11 2.66 11 3.32 11 4 C9.35 4 7.7 4 6 4 C6 3.34 6 2.68 6 2 C4.02 2 2.04 2 0 2 C0 1.34 0 0.68 0 0 Z " fill="#00283F" transform="translate(39,50)"/>
<path d="M0 0 C0.66 0 1.32 0 2 0 C1 3 1 3 -1 4 C-4.5 4.1875 -4.5 4.1875 -8 4 C-8.66 3.34 -9.32 2.68 -10 2 C-9.04287109 1.90912109 -9.04287109 1.90912109 -8.06640625 1.81640625 C-6.82697266 1.69072266 -6.82697266 1.69072266 -5.5625 1.5625 C-4.73878906 1.48128906 -3.91507813 1.40007813 -3.06640625 1.31640625 C-1.01337975 1.21069185 -1.01337975 1.21069185 0 0 Z " fill="#236B7A" transform="translate(54,58)"/>
<path d="M0 0 C-0.47202486 4.24822374 -2.96655518 6.19989709 -6 9 C-5 7 -4 5 -3 3 C-3.66 2.67 -4.32 2.34 -5 2 C-2 0 -2 0 0 0 Z " fill="#003247" transform="translate(58,59)"/>
<path d="M0 0 C0.99 0.33 1.98 0.66 3 1 C4.1875 3.5625 4.1875 3.5625 5 6 C2.08482708 4.92598892 0.22189824 4.22189824 -2 2 C-1.34 2 -0.68 2 0 2 C0 1.34 0 0.68 0 0 Z " fill="#266A79" transform="translate(49,18)"/>
</svg>
