<?xml version="1.0" encoding="UTF-8"?>
<svg version="1.1" xmlns="http://www.w3.org/2000/svg" width="134" height="134">
<path d="M0 0 C9.3311275 8.10904259 15.52023193 17.18651158 19.98828125 28.67578125 C20.30925781 29.45695312 20.63023437 30.238125 20.9609375 31.04296875 C26.24289074 46.42205119 24.00227749 65.33869673 17.30078125 79.80078125 C8.90965409 95.63231673 -4.64324371 107.5427534 -21.76171875 113.05078125 C-39.74644053 118.05485366 -57.39678425 115.83000957 -73.92578125 107.14453125 C-89.12423969 98.06826875 -98.90813709 84.49575661 -104.01171875 67.67578125 C-108.22856123 50.74547336 -105.64225488 33.43124098 -97.48046875 18.078125 C-88.50008199 3.38946049 -74.91234972 -7.25680994 -58.44921875 -12.32421875 C-37.80404374 -16.59852427 -16.81606096 -12.97737519 0 0 Z " fill="#011016" transform="translate(109.01171875,16.32421875)"/>
<path d="M0 0 C3.39396456 1.59784586 5.30168694 3.60337389 7 7 C7.32496013 11.24340343 7.3245719 15.49570189 7.375 19.75 C7.41238281 20.93078125 7.44976562 22.1115625 7.48828125 23.328125 C7.58725254 33.09329207 7.58725254 33.09329207 4.6015625 36.765625 C0.56566051 40.23189517 -1.94781187 40.29207105 -7.25 40.5 C-8.55453125 40.5721875 -9.8590625 40.644375 -11.203125 40.71875 C-15.62281374 39.8821011 -17.22859684 38.8925767 -19.88378906 35.35351562 C-22.20007078 30.46966704 -21.85698272 25.301588 -21.75 20 C-21.77320312 18.85015625 -21.79640625 17.7003125 -21.8203125 16.515625 C-21.78397445 11.25871993 -21.67171565 7.03036731 -18.421875 2.734375 C-13.31785895 -2.17251625 -6.53440184 -1.0576748 0 0 Z " fill="#90BA1D" transform="translate(96,57)"/>
<path d="M0 0 C0.95390625 -0.0038269 1.9078125 -0.00765381 2.890625 -0.01159668 C4.90105245 -0.01431036 6.91151553 -0.00698737 8.921875 0.00976562 C11.99038787 0.03118291 15.05655952 0.00994534 18.125 -0.015625 C20.08333848 -0.01298163 22.0416755 -0.00785645 24 0 C25.36898437 -0.01214539 25.36898437 -0.01214539 26.765625 -0.02453613 C32.33825892 0.05706166 35.59835249 0.78712414 40 4.53125 C43.38433761 8.62807973 44.50604514 11.21777603 44 16.53125 C42.35 16.86125 40.7 17.19125 39 17.53125 C38.31640625 15.80598958 37.6328125 14.08072917 36.94921875 12.35546875 C35.85709022 10.25660445 34.8218324 9.04455405 33 7.53125 C31.03930406 7.07359337 31.03930406 7.07359337 28.86743164 7.12719727 C28.03969742 7.11451309 27.2119632 7.10182892 26.35914612 7.08876038 C25.46847946 7.09169601 24.57781281 7.09463165 23.66015625 7.09765625 C22.7416539 7.0924144 21.82315155 7.08717255 20.8768158 7.08177185 C18.9342449 7.07534841 16.99163513 7.07669281 15.04907227 7.08520508 C12.07693141 7.09370871 9.1067162 7.06496894 6.13476562 7.03320312 C4.24739641 7.03159087 2.36002379 7.03216911 0.47265625 7.03515625 C-0.41598618 7.02392227 -1.3046286 7.01268829 -2.22019958 7.00111389 C-6.03570469 7.04419206 -8.30890732 7.08196057 -11.55664062 9.19335938 C-14.41362217 13.8209736 -13.61137836 19.18701174 -13.5625 24.46875 C-13.58634766 25.64888672 -13.61019531 26.82902344 -13.63476562 28.04492188 C-13.62642443 32.9578875 -13.59423805 36.47074414 -11.16796875 40.80078125 C-6.43981557 43.38348391 -2.05890859 43.27442621 3.25 43.28125 C5.25526826 43.31424809 7.26048624 43.35052222 9.265625 43.390625 C10.15024414 43.39545898 11.03486328 43.40029297 11.94628906 43.40527344 C14 43.53125 14 43.53125 15 44.53125 C15.09975032 47.04261104 15.13882183 49.52028415 15.125 52.03125 C15.13080078 53.08505859 15.13080078 53.08505859 15.13671875 54.16015625 C15.12661378 59.40463622 15.12661378 59.40463622 14 60.53125 C11.30345146 60.60444621 8.63308542 60.62367537 5.9375 60.59375 C4.79958008 60.58698242 4.79958008 60.58698242 3.63867188 60.58007812 C1.75908129 60.5682568 -0.12046899 60.55032078 -2 60.53125 C-2 58.88125 -2 57.23125 -2 55.53125 C1.63 55.53125 5.26 55.53125 9 55.53125 C9 53.55125 9 51.57125 9 49.53125 C7.69804688 49.57765625 6.39609375 49.6240625 5.0546875 49.671875 C3.32814804 49.70940847 1.60158364 49.74580693 -0.125 49.78125 C-0.9809375 49.81476563 -1.836875 49.84828125 -2.71875 49.8828125 C-8.33423042 49.96920451 -11.64754658 49.4316682 -16 45.53125 C-19.40537042 41.17331205 -20.50951875 38.32913182 -20.53125 32.8125 C-20.53640625 31.55050781 -20.5415625 30.28851563 -20.546875 28.98828125 C-20.53140625 27.68246094 -20.5159375 26.37664063 -20.5 25.03125 C-20.51546875 23.72542969 -20.5309375 22.41960938 -20.546875 21.07421875 C-20.54171875 19.81222656 -20.5365625 18.55023438 -20.53125 17.25 C-20.52673828 16.10466797 -20.52222656 14.95933594 -20.51757812 13.77929688 C-19.68463145 8.5521636 -17.26223045 5.65730232 -13.375 2.18945312 C-8.81449866 -0.05120986 -5.01681423 -0.04450828 0 0 Z " fill="#F6F6F7" transform="translate(53,36.46875)"/>
<path d="M0 0 C0.76183594 -0.00773437 1.52367188 -0.01546875 2.30859375 -0.0234375 C5.1828964 0.48467146 6.45096125 1.36519258 8.5625 3.375 C9.06420898 5.76342773 9.06420898 5.76342773 9.05859375 8.55859375 C9.05923828 9.56857422 9.05988281 10.57855469 9.06054688 11.61914062 C9.04056641 12.67294922 9.02058594 13.72675781 9 14.8125 C9.00708984 15.86244141 9.01417969 16.91238281 9.02148438 17.99414062 C8.94829456 26.82758869 8.94829456 26.82758869 5.5625 30.375 C3.1875 30.87109375 3.1875 30.87109375 0.5625 30.8125 C-0.30375 30.81121094 -1.17 30.80992188 -2.0625 30.80859375 C-4.94906119 30.28160643 -5.67751832 29.69281908 -7.4375 27.375 C-7.82568359 24.87890625 -7.82568359 24.87890625 -7.8359375 21.9375 C-7.83980469 20.87789062 -7.84367187 19.81828125 -7.84765625 18.7265625 C-7.83605469 17.62054688 -7.82445313 16.51453125 -7.8125 15.375 C-7.82410156 14.26898438 -7.83570312 13.16296875 -7.84765625 12.0234375 C-7.84378906 10.96382812 -7.83992188 9.90421875 -7.8359375 8.8125 C-7.83255371 7.84183594 -7.82916992 6.87117188 -7.82568359 5.87109375 C-7.08782006 1.12649199 -4.5266835 -0.04580118 0 0 Z " fill="#021216" transform="translate(88.4375,61.625)"/>
</svg>
