<?xml version="1.0" encoding="utf-8"?>
<!-- Generator: Adobe Illustrator 28.1.0, SVG Export Plug-In . SVG Version: 6.00 Build 0)  -->
<svg version="1.1" id="Outline" xmlns="http://www.w3.org/2000/svg" xmlns:xlink="http://www.w3.org/1999/xlink" x="0px" y="0px"
	 viewBox="0 0 512 512" style="enable-background:new 0 0 512 512;" xml:space="preserve">
<style type="text/css">
	.st0{fill:#FFFFFF;}
	.st1{fill:#96C11E;}
</style>
<path class="st0" d="M488.1,137.5c2.8-15.6-1.4-31.6-11.6-43.8l0,0c-10.2-12.2-25.1-19.2-41-19.2c0,0,0,0-0.1,0H81.2l-2-16.7
	c-3.2-26.9-26-47.2-53.1-47.3h-4.7c-6,0-10.8,4.9-10.8,10.8c0,6,4.9,10.8,10.8,10.8h4.7c16.1,0,29.7,12.1,31.6,28.1L87,309.9
	c5.7,48.4,46.7,85,95.5,85h222.8c6,0,10.8-4.9,10.8-10.8s-4.9-10.8-10.8-10.8H182.5c-31.4-0.1-59.6-20-70.1-49.7l-5-14h269.1
	c46.6,0,86.4-33.3,94.6-79.1L488.1,137.5z M466.9,133.7l-16.8,92.9c-6.4,35.5-37.2,61.3-73.3,61.3c0,0-0.1,0-0.1,0H106.3L83.7,96.2
	h351.7c0.1,0,0.1,0,0.2,0c17.4,0,31.7,14.2,31.8,31.6C467.4,129.8,467.2,131.7,466.9,133.7z"/>
<path class="st1" d="M149.3,437.2c-17.7,0-32.2,14.4-32.2,32.2c0,17.7,14.4,32.2,32.2,32.2s32.2-14.4,32.2-32.2
	C181.5,451.6,167.1,437.2,149.3,437.2z"/>
<path class="st1" d="M362.7,437.2c-17.7,0-32.2,14.4-32.2,32.2c0,17.7,14.4,32.2,32.2,32.2c17.7,0,32.2-14.4,32.2-32.2
	C394.8,451.6,380.4,437.2,362.7,437.2z"/>
</svg>
